<svg width="1216" height="300" viewBox="0 0 1216 300" fill="none" xmlns="http://www.w3.org/2000/svg">
<rect width="1216" height="300" rx="20" fill="url(#paint0_linear_2104_1904)" fill-opacity="0.5"/>
<path d="M77.4 40.036C79.768 40.036 81.8373 40.5053 83.608 41.444C85.3787 42.3827 86.744 43.7053 87.704 45.412C88.6853 47.0973 89.176 49.0493 89.176 51.268C89.176 53.4653 88.6853 55.4173 87.704 57.124C86.744 58.8307 85.368 60.1533 83.576 61.092C81.8053 62.0307 79.7467 62.5 77.4 62.5H68.984V40.036H77.4ZM77.048 57.764C79.1173 57.764 80.728 57.1987 81.88 56.068C83.032 54.9373 83.608 53.3373 83.608 51.268C83.608 49.1987 83.032 47.588 81.88 46.436C80.728 45.284 79.1173 44.708 77.048 44.708H74.456V57.764H77.048ZM102.858 62.724C100.746 62.724 98.8047 62.2333 97.034 61.252C95.2847 60.2707 93.8873 58.9053 92.842 57.156C91.818 55.3853 91.306 53.4013 91.306 51.204C91.306 49.0067 91.818 47.0333 92.842 45.284C93.8873 43.5347 95.2847 42.1693 97.034 41.188C98.8047 40.2067 100.746 39.716 102.858 39.716C104.97 39.716 106.901 40.2067 108.65 41.188C110.421 42.1693 111.807 43.5347 112.81 45.284C113.834 47.0333 114.346 49.0067 114.346 51.204C114.346 53.4013 113.834 55.3853 112.81 57.156C111.786 58.9053 110.399 60.2707 108.65 61.252C106.901 62.2333 104.97 62.724 102.858 62.724ZM102.858 57.732C104.65 57.732 106.079 57.1347 107.146 55.94C108.234 54.7453 108.778 53.1667 108.778 51.204C108.778 49.22 108.234 47.6413 107.146 46.468C106.079 45.2733 104.65 44.676 102.858 44.676C101.045 44.676 99.594 45.2627 98.506 46.436C97.4393 47.6093 96.906 49.1987 96.906 51.204C96.906 53.188 97.4393 54.7773 98.506 55.972C99.594 57.1453 101.045 57.732 102.858 57.732ZM106.57 34.98V38.756L98.858 35.524V31.268L106.57 34.98ZM137.486 62.5H132.014L122.862 48.644V62.5H117.39V40.036H122.862L132.014 53.956V40.036H137.486V62.5ZM156.365 47.14C155.959 46.3933 155.373 45.828 154.605 45.444C153.858 45.0387 152.973 44.836 151.949 44.836C150.178 44.836 148.759 45.4227 147.693 46.596C146.626 47.748 146.093 49.2947 146.093 51.236C146.093 53.3053 146.647 54.9267 147.757 56.1C148.887 57.252 150.434 57.828 152.397 57.828C153.741 57.828 154.871 57.4867 155.789 56.804C156.727 56.1213 157.41 55.14 157.837 53.86H150.893V49.828H162.797V54.916C162.391 56.2813 161.698 57.5507 160.717 58.724C159.757 59.8973 158.53 60.8467 157.037 61.572C155.543 62.2973 153.858 62.66 151.981 62.66C149.762 62.66 147.778 62.18 146.029 61.22C144.301 60.2387 142.946 58.884 141.965 57.156C141.005 55.428 140.525 53.4547 140.525 51.236C140.525 49.0173 141.005 47.044 141.965 45.316C142.946 43.5667 144.301 42.212 146.029 41.252C147.757 40.2707 149.73 39.78 151.949 39.78C154.637 39.78 156.898 40.4307 158.733 41.732C160.589 43.0333 161.815 44.836 162.413 47.14H156.365ZM188.769 40.036V44.42H182.817V62.5H177.345V44.42H171.393V40.036H188.769ZM196.987 40.036V62.5H191.515V40.036H196.987ZM202.713 37.412C203.075 37.0067 203.449 36.5587 203.833 36.068C204.217 35.556 204.601 35.044 204.985 34.532C205.39 33.9987 205.753 33.4973 206.073 33.028H211.001C211.342 33.4973 211.705 33.9987 212.089 34.532C212.473 35.044 212.857 35.556 213.241 36.068C213.646 36.5587 214.019 37.0067 214.361 37.412V37.828H211.833C211.299 37.4653 210.755 37.0707 210.201 36.644C209.646 36.196 209.091 35.7267 208.537 35.236C208.003 35.7267 207.449 36.196 206.873 36.644C206.318 37.0707 205.774 37.4653 205.241 37.828H202.713V37.412ZM201.721 34.788C201.123 34.34 200.494 33.8493 199.833 33.316C199.193 32.7613 198.638 32.1747 198.169 31.556V31.236H201.945C202.286 31.9187 202.627 32.5053 202.969 32.996C203.31 33.4653 203.683 33.924 204.089 34.372V34.788H201.721ZM215.001 62.5H201.849V39.652H215.001V43.62H206.681V48.644H214.425V52.612H206.681V58.5H215.001V62.5ZM238.955 62.5H233.483L224.331 48.644V62.5H218.859V40.036H224.331L233.483 53.956V40.036H238.955V62.5ZM265.863 40.036V44.42H259.911V62.5H254.439V44.42H248.487V40.036H265.863ZM288.065 40.036V62.5H282.593V53.252H274.081V62.5H268.609V40.036H274.081V48.836H282.593V40.036H288.065ZM302.639 62.724C300.527 62.724 298.586 62.2333 296.815 61.252C295.066 60.2707 293.669 58.9053 292.623 57.156C291.599 55.3853 291.087 53.4013 291.087 51.204C291.087 49.0067 291.599 47.0333 292.623 45.284C293.669 43.5347 295.066 42.1693 296.815 41.188C298.586 40.2067 300.527 39.716 302.639 39.716C304.751 39.716 306.682 40.2067 308.431 41.188C310.202 42.1693 311.589 43.5347 312.591 45.284C313.615 47.0333 314.127 49.0067 314.127 51.204C314.127 53.4013 313.615 55.3853 312.591 57.156C311.567 58.9053 310.181 60.2707 308.431 61.252C306.682 62.2333 304.751 62.724 302.639 62.724ZM302.639 57.732C304.431 57.732 305.861 57.1347 306.927 55.94C308.015 54.7453 308.559 53.1667 308.559 51.204C308.559 49.22 308.015 47.6413 306.927 46.468C305.861 45.2733 304.431 44.676 302.639 44.676C300.826 44.676 299.375 45.2627 298.287 46.436C297.221 47.6093 296.687 49.1987 296.687 51.204C296.687 53.188 297.221 54.7773 298.287 55.972C299.375 57.1453 300.826 57.732 302.639 57.732ZM302.607 36.132L297.647 38.756V34.98L302.607 32.452L307.567 34.98V38.756L302.607 36.132ZM337.268 62.5H331.796L322.644 48.644V62.5H317.172V40.036H322.644L331.796 53.956V40.036H337.268V62.5ZM356.146 47.14C355.741 46.3933 355.154 45.828 354.386 45.444C353.639 45.0387 352.754 44.836 351.73 44.836C349.959 44.836 348.541 45.4227 347.474 46.596C346.407 47.748 345.874 49.2947 345.874 51.236C345.874 53.3053 346.429 54.9267 347.538 56.1C348.669 57.252 350.215 57.828 352.178 57.828C353.522 57.828 354.653 57.4867 355.57 56.804C356.509 56.1213 357.191 55.14 357.618 53.86H350.674V49.828H362.578V54.916C362.173 56.2813 361.479 57.5507 360.498 58.724C359.538 59.8973 358.311 60.8467 356.818 61.572C355.325 62.2973 353.639 62.66 351.762 62.66C349.543 62.66 347.559 62.18 345.81 61.22C344.082 60.2387 342.727 58.884 341.746 57.156C340.786 55.428 340.306 53.4547 340.306 51.236C340.306 49.0173 340.786 47.044 341.746 45.316C342.727 43.5667 344.082 42.212 345.81 41.252C347.538 40.2707 349.511 39.78 351.73 39.78C354.418 39.78 356.679 40.4307 358.514 41.732C360.37 43.0333 361.597 44.836 362.194 47.14H356.146ZM397.83 40.036V62.5H392.358V49.028L387.334 62.5H382.918L377.862 48.996V62.5H372.39V40.036H378.854L385.158 55.588L391.398 40.036H397.83ZM407.237 40.036V62.5H401.765V40.036H407.237ZM431.299 62.5H425.827L416.675 48.644V62.5H411.203V40.036H416.675L425.827 53.956V40.036H431.299V62.5ZM454.721 40.036V62.5H449.249V53.252H440.737V62.5H435.265V40.036H440.737V48.836H449.249V40.036H454.721Z" fill="white"/>
<path d="M79.92 107H77.64L70.78 96.62V107H68.5V93.08H70.78L77.64 103.44V93.08H79.92V107ZM88.6141 95.8C89.4541 95.8 90.2007 95.98 90.8541 96.34C91.5207 96.7 92.0407 97.2333 92.4141 97.94C92.8007 98.6467 92.9941 99.5 92.9941 100.5V107H90.7341V100.84C90.7341 99.8533 90.4874 99.1 89.9941 98.58C89.5007 98.0467 88.8274 97.78 87.9741 97.78C87.1207 97.78 86.4407 98.0467 85.9341 98.58C85.4407 99.1 85.1941 99.8533 85.1941 100.84V107H82.9141V92.2H85.1941V97.26C85.5807 96.7933 86.0674 96.4333 86.6541 96.18C87.2541 95.9267 87.9074 95.8 88.6141 95.8ZM100.242 96.02C101.602 96.02 102.616 96.32 103.282 96.92C103.949 97.5067 104.282 98.4333 104.282 99.7V107H102.782L102.362 105.5H102.282C101.976 105.887 101.656 106.207 101.322 106.46C101.002 106.713 100.629 106.9 100.202 107.02C99.789 107.14 99.2823 107.2 98.6823 107.2C98.0423 107.2 97.4623 107.087 96.9423 106.86C96.4357 106.62 96.0357 106.26 95.7423 105.78C95.449 105.287 95.3023 104.673 95.3023 103.94C95.3023 102.847 95.7157 102.013 96.5423 101.44C97.3823 100.867 98.6557 100.553 100.362 100.5L102.202 100.44V99.84C102.202 99.04 102.022 98.48 101.662 98.16C101.302 97.84 100.796 97.68 100.142 97.68C99.5823 97.68 99.049 97.76 98.5423 97.92C98.0357 98.08 97.5557 98.2733 97.1023 98.5L96.4223 96.96C96.929 96.6933 97.509 96.4733 98.1623 96.3C98.829 96.1133 99.5223 96.02 100.242 96.02ZM100.742 101.86C99.5157 101.913 98.6623 102.12 98.1823 102.48C97.7157 102.827 97.4823 103.32 97.4823 103.96C97.4823 104.52 97.649 104.927 97.9823 105.18C98.329 105.433 98.7623 105.56 99.2823 105.56C100.122 105.56 100.816 105.327 101.362 104.86C101.909 104.393 102.182 103.693 102.182 102.76V101.82L100.742 101.86ZM101.302 91.68C101.476 91.9733 101.709 92.3067 102.002 92.68C102.309 93.04 102.622 93.4 102.942 93.76C103.276 94.1067 103.562 94.4 103.802 94.64V94.88H102.342C101.996 94.6667 101.629 94.4067 101.242 94.1C100.869 93.7933 100.502 93.46 100.142 93.1C99.7823 93.46 99.4157 93.7933 99.0423 94.1C98.6823 94.3933 98.329 94.6533 97.9823 94.88H96.5423V94.64C96.7957 94.3867 97.0757 94.0867 97.3823 93.74C97.7023 93.3933 98.009 93.04 98.3023 92.68C98.5957 92.3067 98.8357 91.9733 99.0223 91.68H101.302ZM99.9823 110.72C99.649 110.72 99.3623 110.62 99.1223 110.42C98.8823 110.233 98.7623 109.927 98.7623 109.5C98.7623 109.06 98.8823 108.747 99.1223 108.56C99.3623 108.373 99.649 108.28 99.9823 108.28C100.302 108.28 100.582 108.373 100.822 108.56C101.062 108.747 101.182 109.06 101.182 109.5C101.182 109.927 101.062 110.233 100.822 110.42C100.582 110.62 100.302 110.72 99.9823 110.72ZM112.947 95.8C113.813 95.8 114.587 95.98 115.267 96.34C115.96 96.7 116.5 97.2333 116.887 97.94C117.273 98.6467 117.467 99.5 117.467 100.5V107H115.207V100.84C115.207 99.8533 114.96 99.1 114.467 98.58C113.973 98.0467 113.3 97.78 112.447 97.78C111.593 97.78 110.913 98.0467 110.407 98.58C109.913 99.1 109.667 99.8533 109.667 100.84V107H107.387V95.98H109.667V97.24C110.04 96.7867 110.513 96.4333 111.087 96.18C111.673 95.9267 112.293 95.8 112.947 95.8ZM124.81 101.44C124.81 100.333 125.037 99.3533 125.49 98.5C125.957 97.6467 126.584 96.9867 127.37 96.52C128.17 96.04 129.057 95.8 130.03 95.8C130.75 95.8 131.457 95.96 132.15 96.28C132.857 96.5867 133.417 97 133.83 97.52V92.2H136.13V107H133.83V105.34C133.457 105.873 132.937 106.313 132.27 106.66C131.617 107.007 130.864 107.18 130.01 107.18C129.05 107.18 128.17 106.94 127.37 106.46C126.584 105.967 125.957 105.287 125.49 104.42C125.037 103.54 124.81 102.547 124.81 101.44ZM133.83 101.48C133.83 100.72 133.67 100.06 133.35 99.5C133.044 98.94 132.637 98.5133 132.13 98.22C131.624 97.9267 131.077 97.78 130.49 97.78C129.904 97.78 129.357 97.9267 128.85 98.22C128.344 98.5 127.93 98.92 127.61 99.48C127.304 100.027 127.15 100.68 127.15 101.44C127.15 102.2 127.304 102.867 127.61 103.44C127.93 104.013 128.344 104.453 128.85 104.76C129.37 105.053 129.917 105.2 130.49 105.2C131.077 105.2 131.624 105.053 132.13 104.76C132.637 104.467 133.044 104.04 133.35 103.48C133.67 102.907 133.83 102.24 133.83 101.48ZM140.285 94.52C139.872 94.52 139.525 94.38 139.245 94.1C138.965 93.82 138.825 93.4733 138.825 93.06C138.825 92.6467 138.965 92.3 139.245 92.02C139.525 91.74 139.872 91.6 140.285 91.6C140.685 91.6 141.025 91.74 141.305 92.02C141.585 92.3 141.725 92.6467 141.725 93.06C141.725 93.4733 141.585 93.82 141.305 94.1C141.025 94.38 140.685 94.52 140.285 94.52ZM141.405 95.98V107H139.125V95.98H141.405ZM148.798 96.02C149.745 96.02 150.558 96.22 151.238 96.62C151.918 97.0067 152.438 97.5667 152.798 98.3C153.172 99.0333 153.358 99.9 153.358 100.9V102.06H146.118C146.145 103.167 146.432 104.013 146.978 104.6C147.538 105.187 148.318 105.48 149.318 105.48C150.012 105.48 150.625 105.42 151.158 105.3C151.705 105.167 152.265 104.973 152.838 104.72V106.48C152.305 106.72 151.758 106.9 151.198 107.02C150.652 107.14 149.998 107.2 149.238 107.2C148.198 107.2 147.278 106.993 146.478 106.58C145.678 106.167 145.052 105.553 144.598 104.74C144.158 103.913 143.938 102.9 143.938 101.7C143.938 100.487 144.138 99.46 144.538 98.62C144.952 97.78 145.518 97.14 146.238 96.7C146.972 96.2467 147.825 96.02 148.798 96.02ZM148.798 97.66C148.038 97.66 147.425 97.9067 146.958 98.4C146.505 98.8933 146.238 99.5933 146.158 100.5H151.238C151.238 99.94 151.152 99.4467 150.978 99.02C150.805 98.5933 150.538 98.26 150.178 98.02C149.818 97.78 149.358 97.66 148.798 97.66ZM149.818 91.68C149.992 91.9733 150.225 92.3067 150.518 92.68C150.825 93.04 151.138 93.4 151.458 93.76C151.792 94.1067 152.078 94.4 152.318 94.64V94.88H150.858C150.512 94.6667 150.145 94.4067 149.758 94.1C149.385 93.7933 149.018 93.46 148.658 93.1C148.298 93.46 147.932 93.7933 147.558 94.1C147.198 94.3933 146.845 94.6533 146.498 94.88H145.058V94.64C145.312 94.3867 145.592 94.0867 145.898 93.74C146.218 93.3933 146.525 93.04 146.818 92.68C147.112 92.3067 147.352 91.9733 147.538 91.68H149.818ZM148.878 110.72C148.545 110.72 148.258 110.62 148.018 110.42C147.778 110.233 147.658 109.927 147.658 109.5C147.658 109.06 147.778 108.747 148.018 108.56C148.258 108.373 148.545 108.28 148.878 108.28C149.198 108.28 149.478 108.373 149.718 108.56C149.958 108.747 150.078 109.06 150.078 109.5C150.078 109.927 149.958 110.233 149.718 110.42C149.478 110.62 149.198 110.72 148.878 110.72ZM161.404 95.8C162.27 95.8 163.044 95.98 163.724 96.34C164.417 96.7 164.957 97.2333 165.344 97.94C165.73 98.6467 165.924 99.5 165.924 100.5V107H163.664V100.84C163.664 99.8533 163.417 99.1 162.924 98.58C162.43 98.0467 161.757 97.78 160.904 97.78C160.05 97.78 159.37 98.0467 158.864 98.58C158.37 99.1 158.124 99.8533 158.124 100.84V107H155.844V95.98H158.124V97.24C158.497 96.7867 158.97 96.4333 159.544 96.18C160.13 95.9267 160.75 95.8 161.404 95.8ZM179.587 95.8C180.454 95.8 181.227 95.98 181.907 96.34C182.601 96.7 183.141 97.2333 183.527 97.94C183.914 98.6467 184.107 99.5 184.107 100.5V107H181.847V100.84C181.847 99.8533 181.601 99.1 181.107 98.58C180.614 98.0467 179.941 97.78 179.087 97.78C178.234 97.78 177.554 98.0467 177.047 98.58C176.554 99.1 176.307 99.8533 176.307 100.84V107H174.027V95.98H176.307V97.24C176.681 96.7867 177.154 96.4333 177.727 96.18C178.314 95.9267 178.934 95.8 179.587 95.8ZM196.676 101.6C196.676 102.787 196.469 103.8 196.056 104.64C195.642 105.48 195.049 106.12 194.276 106.56C193.516 106.987 192.616 107.2 191.576 107.2C190.616 107.2 189.756 106.987 188.996 106.56C188.236 106.12 187.636 105.48 187.196 104.64C186.769 103.8 186.556 102.787 186.556 101.6C186.556 99.8133 187.009 98.44 187.916 97.48C188.822 96.5067 190.062 96.02 191.636 96.02C192.356 96.02 193.016 96.14 193.616 96.38C194.229 96.6067 194.756 96.94 195.196 97.38C195.582 97.2733 195.876 97.0867 196.076 96.82C196.276 96.54 196.409 96.2133 196.476 95.84C196.542 95.4533 196.576 95.0333 196.576 94.58H198.756L198.896 94.8C198.776 95.4267 198.609 95.9933 198.396 96.5C198.182 96.9933 197.889 97.42 197.516 97.78C197.142 98.14 196.649 98.4133 196.036 98.6C196.236 99.0133 196.389 99.4733 196.496 99.98C196.616 100.473 196.676 101.013 196.676 101.6ZM188.736 101.6C188.736 102.44 188.836 103.147 189.036 103.72C189.236 104.293 189.549 104.727 189.976 105.02C190.402 105.313 190.949 105.46 191.616 105.46C192.296 105.46 192.842 105.313 193.256 105.02C193.682 104.727 193.996 104.293 194.196 103.72C194.396 103.147 194.496 102.44 194.496 101.6C194.496 100.747 194.396 100.04 194.196 99.48C193.996 98.92 193.682 98.5 193.256 98.22C192.829 97.9267 192.276 97.78 191.596 97.78C190.596 97.78 189.869 98.1 189.416 98.74C188.962 99.38 188.736 100.333 188.736 101.6ZM200.871 94.52C200.458 94.52 200.111 94.38 199.831 94.1C199.551 93.82 199.411 93.4733 199.411 93.06C199.411 92.6467 199.551 92.3 199.831 92.02C200.111 91.74 200.458 91.6 200.871 91.6C201.271 91.6 201.611 91.74 201.891 92.02C202.171 92.3 202.311 92.6467 202.311 93.06C202.311 93.4733 202.171 93.82 201.891 94.1C201.611 94.38 201.271 94.52 200.871 94.52ZM201.991 95.98V107H199.711V95.98H201.991ZM209.42 101.44C209.42 100.333 209.646 99.3533 210.1 98.5C210.566 97.6467 211.193 96.9867 211.98 96.52C212.78 96.04 213.666 95.8 214.64 95.8C215.36 95.8 216.066 95.96 216.76 96.28C217.466 96.5867 218.026 97 218.44 97.52V92.2H220.74V107H218.44V105.34C218.066 105.873 217.546 106.313 216.88 106.66C216.226 107.007 215.473 107.18 214.62 107.18C213.66 107.18 212.78 106.94 211.98 106.46C211.193 105.967 210.566 105.287 210.1 104.42C209.646 103.54 209.42 102.547 209.42 101.44ZM218.44 101.48C218.44 100.72 218.28 100.06 217.96 99.5C217.653 98.94 217.246 98.5133 216.74 98.22C216.233 97.9267 215.686 97.78 215.1 97.78C214.513 97.78 213.966 97.9267 213.46 98.22C212.953 98.5 212.54 98.92 212.22 99.48C211.913 100.027 211.76 100.68 211.76 101.44C211.76 102.2 211.913 102.867 212.22 103.44C212.54 104.013 212.953 104.453 213.46 104.76C213.98 105.053 214.526 105.2 215.1 105.2C215.686 105.2 216.233 105.053 216.74 104.76C217.246 104.467 217.653 104.04 217.96 103.48C218.28 102.907 218.44 102.24 218.44 101.48ZM228.514 107.18C227.474 107.18 226.534 106.947 225.694 106.48C224.854 106 224.194 105.333 223.714 104.48C223.234 103.613 222.994 102.613 222.994 101.48C222.994 100.36 223.241 99.3667 223.734 98.5C224.228 97.6333 224.901 96.9667 225.754 96.5C226.608 96.0333 227.561 95.8 228.614 95.8C229.668 95.8 230.621 96.0333 231.474 96.5C232.328 96.9667 233.001 97.6333 233.494 98.5C233.988 99.3667 234.234 100.36 234.234 101.48C234.234 102.6 233.981 103.593 233.474 104.46C232.968 105.327 232.274 106 231.394 106.48C230.528 106.947 229.568 107.18 228.514 107.18ZM228.514 105.2C229.101 105.2 229.648 105.06 230.154 104.78C230.674 104.5 231.094 104.08 231.414 103.52C231.734 102.96 231.894 102.28 231.894 101.48C231.894 100.68 231.741 100.007 231.434 99.46C231.128 98.9 230.721 98.48 230.214 98.2C229.708 97.92 229.161 97.78 228.574 97.78C227.988 97.78 227.441 97.92 226.934 98.2C226.441 98.48 226.048 98.9 225.754 99.46C225.461 100.007 225.314 100.68 225.314 101.48C225.314 102.667 225.614 103.587 226.214 104.24C226.828 104.88 227.594 105.2 228.514 105.2ZM230.674 93.34V95.02L226.254 92.84V90.9L230.674 93.34ZM242.048 95.8C242.915 95.8 243.688 95.98 244.368 96.34C245.062 96.7 245.602 97.2333 245.988 97.94C246.375 98.6467 246.568 99.5 246.568 100.5V107H244.308V100.84C244.308 99.8533 244.062 99.1 243.568 98.58C243.075 98.0467 242.402 97.78 241.548 97.78C240.695 97.78 240.015 98.0467 239.508 98.58C239.015 99.1 238.768 99.8533 238.768 100.84V107H236.488V95.98H238.768V97.24C239.142 96.7867 239.615 96.4333 240.188 96.18C240.775 95.9267 241.395 95.8 242.048 95.8ZM253.917 95.8C254.77 95.8 255.523 95.9733 256.177 96.32C256.843 96.6533 257.363 97.0733 257.737 97.58V95.98H260.037V107.18C260.037 108.193 259.823 109.093 259.397 109.88C258.97 110.68 258.35 111.307 257.537 111.76C256.737 112.213 255.777 112.44 254.657 112.44C253.163 112.44 251.923 112.087 250.937 111.38C249.95 110.687 249.39 109.74 249.257 108.54H251.517C251.69 109.113 252.057 109.573 252.617 109.92C253.19 110.28 253.87 110.46 254.657 110.46C255.577 110.46 256.317 110.18 256.877 109.62C257.45 109.06 257.737 108.247 257.737 107.18V105.34C257.35 105.86 256.823 106.3 256.157 106.66C255.503 107.007 254.757 107.18 253.917 107.18C252.957 107.18 252.077 106.94 251.277 106.46C250.49 105.967 249.863 105.287 249.397 104.42C248.943 103.54 248.717 102.547 248.717 101.44C248.717 100.333 248.943 99.3533 249.397 98.5C249.863 97.6467 250.49 96.9867 251.277 96.52C252.077 96.04 252.957 95.8 253.917 95.8ZM257.737 101.48C257.737 100.72 257.577 100.06 257.257 99.5C256.95 98.94 256.543 98.5133 256.037 98.22C255.53 97.9267 254.983 97.78 254.397 97.78C253.81 97.78 253.263 97.9267 252.757 98.22C252.25 98.5 251.837 98.92 251.517 99.48C251.21 100.027 251.057 100.68 251.057 101.44C251.057 102.2 251.21 102.867 251.517 103.44C251.837 104.013 252.25 104.453 252.757 104.76C253.277 105.053 253.823 105.2 254.397 105.2C254.983 105.2 255.53 105.053 256.037 104.76C256.543 104.467 256.95 104.04 257.257 103.48C257.577 102.907 257.737 102.24 257.737 101.48ZM270.887 97.84V103.94C270.887 104.353 270.98 104.653 271.167 104.84C271.367 105.013 271.7 105.1 272.167 105.1H273.567V107H271.767C270.74 107 269.953 106.76 269.407 106.28C268.86 105.8 268.587 105.02 268.587 103.94V97.84H267.287V95.98H268.587V93.24H270.887V95.98H273.567V97.84H270.887ZM276.828 94.52C276.415 94.52 276.068 94.38 275.788 94.1C275.508 93.82 275.368 93.4733 275.368 93.06C275.368 92.6467 275.508 92.3 275.788 92.02C276.068 91.74 276.415 91.6 276.828 91.6C277.228 91.6 277.568 91.74 277.848 92.02C278.128 92.3 278.268 92.6467 278.268 93.06C278.268 93.4733 278.128 93.82 277.848 94.1C277.568 94.38 277.228 94.52 276.828 94.52ZM277.948 95.98V107H275.668V95.98H277.948ZM282.181 94.64C282.408 94.3867 282.641 94.12 282.881 93.84C283.121 93.5467 283.361 93.2467 283.601 92.94C283.855 92.6333 284.081 92.3333 284.281 92.04H286.501C286.715 92.3333 286.941 92.6333 287.181 92.94C287.421 93.2467 287.661 93.5467 287.901 93.84C288.155 94.12 288.395 94.3867 288.621 94.64V94.88H287.441C287.108 94.6533 286.768 94.4067 286.421 94.14C286.075 93.86 285.728 93.5667 285.381 93.26C285.048 93.5667 284.701 93.86 284.341 94.14C283.995 94.4067 283.655 94.6533 283.321 94.88H282.181V94.64ZM281.861 92.98C281.488 92.7 281.121 92.3933 280.761 92.06C280.401 91.7133 280.075 91.3467 279.781 90.96V90.76H281.701C281.915 91.1867 282.115 91.5467 282.301 91.84C282.501 92.1333 282.728 92.4333 282.981 92.74V92.98H281.861ZM285.341 96.02C286.288 96.02 287.101 96.22 287.781 96.62C288.461 97.0067 288.981 97.5667 289.341 98.3C289.715 99.0333 289.901 99.9 289.901 100.9V102.06H282.661C282.688 103.167 282.975 104.013 283.521 104.6C284.081 105.187 284.861 105.48 285.861 105.48C286.555 105.48 287.168 105.42 287.701 105.3C288.248 105.167 288.808 104.973 289.381 104.72V106.48C288.848 106.72 288.301 106.9 287.741 107.02C287.195 107.14 286.541 107.2 285.781 107.2C284.741 107.2 283.821 106.993 283.021 106.58C282.221 106.167 281.595 105.553 281.141 104.74C280.701 103.913 280.481 102.9 280.481 101.7C280.481 100.487 280.681 99.46 281.081 98.62C281.495 97.78 282.061 97.14 282.781 96.7C283.515 96.2467 284.368 96.02 285.341 96.02ZM285.341 97.66C284.581 97.66 283.968 97.9067 283.501 98.4C283.048 98.8933 282.781 99.5933 282.701 100.5H287.781C287.781 99.94 287.695 99.4467 287.521 99.02C287.348 98.5933 287.081 98.26 286.721 98.02C286.361 97.78 285.901 97.66 285.341 97.66ZM297.947 95.8C298.813 95.8 299.587 95.98 300.267 96.34C300.96 96.7 301.5 97.2333 301.887 97.94C302.273 98.6467 302.467 99.5 302.467 100.5V107H300.207V100.84C300.207 99.8533 299.96 99.1 299.467 98.58C298.973 98.0467 298.3 97.78 297.447 97.78C296.593 97.78 295.913 98.0467 295.407 98.58C294.913 99.1 294.667 99.8533 294.667 100.84V107H292.387V95.98H294.667V97.24C295.04 96.7867 295.513 96.4333 296.087 96.18C296.673 95.9267 297.293 95.8 297.947 95.8ZM312.85 92.2V107H310.57V92.2H312.85ZM325.504 101.6C325.504 102.787 325.297 103.8 324.884 104.64C324.47 105.48 323.877 106.12 323.104 106.56C322.344 106.987 321.444 107.2 320.404 107.2C319.444 107.2 318.584 106.987 317.824 106.56C317.064 106.12 316.464 105.48 316.024 104.64C315.597 103.8 315.384 102.787 315.384 101.6C315.384 99.8133 315.837 98.44 316.744 97.48C317.65 96.5067 318.89 96.02 320.464 96.02C321.184 96.02 321.844 96.14 322.444 96.38C323.057 96.6067 323.584 96.94 324.024 97.38C324.41 97.2733 324.704 97.0867 324.904 96.82C325.104 96.54 325.237 96.2133 325.304 95.84C325.37 95.4533 325.404 95.0333 325.404 94.58H327.584L327.724 94.8C327.604 95.4267 327.437 95.9933 327.224 96.5C327.01 96.9933 326.717 97.42 326.344 97.78C325.97 98.14 325.477 98.4133 324.864 98.6C325.064 99.0133 325.217 99.4733 325.324 99.98C325.444 100.473 325.504 101.013 325.504 101.6ZM317.564 101.6C317.564 102.44 317.664 103.147 317.864 103.72C318.064 104.293 318.377 104.727 318.804 105.02C319.23 105.313 319.777 105.46 320.444 105.46C321.124 105.46 321.67 105.313 322.084 105.02C322.51 104.727 322.824 104.293 323.024 103.72C323.224 103.147 323.324 102.44 323.324 101.6C323.324 100.747 323.224 100.04 323.024 99.48C322.824 98.92 322.51 98.5 322.084 98.22C321.657 97.9267 321.104 97.78 320.424 97.78C319.424 97.78 318.697 98.1 318.244 98.74C317.79 99.38 317.564 100.333 317.564 101.6ZM323.564 91.88C323.417 92.0667 323.217 92.2933 322.964 92.56C322.724 92.8267 322.45 93.1067 322.144 93.4C321.85 93.68 321.557 93.9533 321.264 94.22C320.97 94.4733 320.704 94.6933 320.464 94.88H319.064V94.64C319.264 94.3867 319.49 94.0867 319.744 93.74C319.997 93.3933 320.244 93.04 320.484 92.68C320.724 92.3067 320.924 91.9733 321.084 91.68H323.564V91.88ZM334.099 95.8C334.966 95.8 335.739 95.98 336.419 96.34C337.112 96.7 337.652 97.2333 338.039 97.94C338.426 98.6467 338.619 99.5 338.619 100.5V107H336.359V100.84C336.359 99.8533 336.112 99.1 335.619 98.58C335.126 98.0467 334.452 97.78 333.599 97.78C332.746 97.78 332.066 98.0467 331.559 98.58C331.066 99.1 330.819 99.8533 330.819 100.84V107H328.539V95.98H330.819V97.24C331.192 96.7867 331.666 96.4333 332.239 96.18C332.826 95.9267 333.446 95.8 334.099 95.8ZM349.383 97.84V103.94C349.383 104.353 349.476 104.653 349.663 104.84C349.863 105.013 350.196 105.1 350.663 105.1H352.063V107H350.263C349.236 107 348.449 106.76 347.903 106.28C347.356 105.8 347.083 105.02 347.083 103.94V97.84H345.783V95.98H347.083V93.24H349.383V95.98H352.063V97.84H349.383ZM359.864 95.8C360.704 95.8 361.451 95.98 362.104 96.34C362.771 96.7 363.291 97.2333 363.664 97.94C364.051 98.6467 364.244 99.5 364.244 100.5V107H361.984V100.84C361.984 99.8533 361.737 99.1 361.244 98.58C360.751 98.0467 360.077 97.78 359.224 97.78C358.371 97.78 357.691 98.0467 357.184 98.58C356.691 99.1 356.444 99.8533 356.444 100.84V107H354.164V92.2H356.444V97.26C356.831 96.7933 357.317 96.4333 357.904 96.18C358.504 95.9267 359.157 95.8 359.864 95.8ZM366.392 101.44C366.392 100.333 366.619 99.3533 367.072 98.5C367.539 97.6467 368.166 96.9867 368.952 96.52C369.752 96.04 370.632 95.8 371.592 95.8C372.459 95.8 373.212 95.9733 373.852 96.32C374.506 96.6533 375.026 97.0733 375.412 97.58V95.98H377.712V107H375.412V105.36C375.026 105.88 374.499 106.313 373.832 106.66C373.166 107.007 372.406 107.18 371.552 107.18C370.606 107.18 369.739 106.94 368.952 106.46C368.166 105.967 367.539 105.287 367.072 104.42C366.619 103.54 366.392 102.547 366.392 101.44ZM375.412 101.48C375.412 100.72 375.252 100.06 374.932 99.5C374.626 98.94 374.219 98.5133 373.712 98.22C373.206 97.9267 372.659 97.78 372.072 97.78C371.486 97.78 370.939 97.9267 370.432 98.22C369.926 98.5 369.512 98.92 369.192 99.48C368.886 100.027 368.732 100.68 368.732 101.44C368.732 102.2 368.886 102.867 369.192 103.44C369.512 104.013 369.926 104.453 370.432 104.76C370.952 105.053 371.499 105.2 372.072 105.2C372.659 105.2 373.206 105.053 373.712 104.76C374.219 104.467 374.626 104.04 374.932 103.48C375.252 102.907 375.412 102.24 375.412 101.48ZM394.047 95.8C394.914 95.8 395.687 95.98 396.367 96.34C397.06 96.7 397.6 97.2333 397.987 97.94C398.387 98.6467 398.587 99.5 398.587 100.5V107H396.327V100.84C396.327 99.8533 396.08 99.1 395.587 98.58C395.094 98.0467 394.42 97.78 393.567 97.78C392.714 97.78 392.034 98.0467 391.527 98.58C391.034 99.1 390.787 99.8533 390.787 100.84V107H388.527V100.84C388.527 99.8533 388.28 99.1 387.787 98.58C387.294 98.0467 386.62 97.78 385.767 97.78C384.914 97.78 384.234 98.0467 383.727 98.58C383.234 99.1 382.987 99.8533 382.987 100.84V107H380.707V95.98H382.987V97.24C383.36 96.7867 383.834 96.4333 384.407 96.18C384.98 95.9267 385.594 95.8 386.247 95.8C387.127 95.8 387.914 95.9867 388.607 96.36C389.3 96.7333 389.834 97.2733 390.207 97.98C390.54 97.3133 391.06 96.7867 391.767 96.4C392.474 96 393.234 95.8 394.047 95.8ZM411.124 95.8C411.977 95.8 412.73 95.9733 413.384 96.32C414.05 96.6533 414.57 97.0733 414.944 97.58V95.98H417.244V107.18C417.244 108.193 417.03 109.093 416.604 109.88C416.177 110.68 415.557 111.307 414.744 111.76C413.944 112.213 412.984 112.44 411.864 112.44C410.37 112.44 409.13 112.087 408.144 111.38C407.157 110.687 406.597 109.74 406.464 108.54H408.724C408.897 109.113 409.264 109.573 409.824 109.92C410.397 110.28 411.077 110.46 411.864 110.46C412.784 110.46 413.524 110.18 414.084 109.62C414.657 109.06 414.944 108.247 414.944 107.18V105.34C414.557 105.86 414.03 106.3 413.364 106.66C412.71 107.007 411.964 107.18 411.124 107.18C410.164 107.18 409.284 106.94 408.484 106.46C407.697 105.967 407.07 105.287 406.604 104.42C406.15 103.54 405.924 102.547 405.924 101.44C405.924 100.333 406.15 99.3533 406.604 98.5C407.07 97.6467 407.697 96.9867 408.484 96.52C409.284 96.04 410.164 95.8 411.124 95.8ZM414.944 101.48C414.944 100.72 414.784 100.06 414.464 99.5C414.157 98.94 413.75 98.5133 413.244 98.22C412.737 97.9267 412.19 97.78 411.604 97.78C411.017 97.78 410.47 97.9267 409.964 98.22C409.457 98.5 409.044 98.92 408.724 99.48C408.417 100.027 408.264 100.68 408.264 101.44C408.264 102.2 408.417 102.867 408.724 103.44C409.044 104.013 409.457 104.453 409.964 104.76C410.484 105.053 411.03 105.2 411.604 105.2C412.19 105.2 412.737 105.053 413.244 104.76C413.75 104.467 414.157 104.04 414.464 103.48C414.784 102.907 414.944 102.24 414.944 101.48ZM421.398 94.52C420.985 94.52 420.638 94.38 420.358 94.1C420.078 93.82 419.938 93.4733 419.938 93.06C419.938 92.6467 420.078 92.3 420.358 92.02C420.638 91.74 420.985 91.6 421.398 91.6C421.798 91.6 422.138 91.74 422.418 92.02C422.698 92.3 422.838 92.6467 422.838 93.06C422.838 93.4733 422.698 93.82 422.418 94.1C422.138 94.38 421.798 94.52 421.398 94.52ZM422.518 95.98V107H420.238V95.98H422.518ZM424.752 101.44C424.752 100.333 424.978 99.3533 425.432 98.5C425.898 97.6467 426.525 96.9867 427.312 96.52C428.112 96.04 428.992 95.8 429.952 95.8C430.818 95.8 431.572 95.9733 432.212 96.32C432.865 96.6533 433.385 97.0733 433.772 97.58V95.98H436.072V107H433.772V105.36C433.385 105.88 432.858 106.313 432.192 106.66C431.525 107.007 430.765 107.18 429.912 107.18C428.965 107.18 428.098 106.94 427.312 106.46C426.525 105.967 425.898 105.287 425.432 104.42C424.978 103.54 424.752 102.547 424.752 101.44ZM433.772 101.48C433.772 100.72 433.612 100.06 433.292 99.5C432.985 98.94 432.578 98.5133 432.072 98.22C431.565 97.9267 431.018 97.78 430.432 97.78C429.845 97.78 429.298 97.9267 428.792 98.22C428.285 98.5 427.872 98.92 427.552 99.48C427.245 100.027 427.092 100.68 427.092 101.44C427.092 102.2 427.245 102.867 427.552 103.44C427.872 104.013 428.285 104.453 428.792 104.76C429.312 105.053 429.858 105.2 430.432 105.2C431.018 105.2 431.565 105.053 432.072 104.76C432.578 104.467 432.985 104.04 433.292 103.48C433.612 102.907 433.772 102.24 433.772 101.48ZM441.566 104.26L439.146 109.78H437.666L439.086 104.26H441.566ZM454.454 95.8C455.294 95.8 456.041 95.98 456.694 96.34C457.361 96.7 457.881 97.2333 458.254 97.94C458.641 98.6467 458.834 99.5 458.834 100.5V107H456.574V100.84C456.574 99.8533 456.327 99.1 455.834 98.58C455.341 98.0467 454.667 97.78 453.814 97.78C452.961 97.78 452.281 98.0467 451.774 98.58C451.281 99.1 451.034 99.8533 451.034 100.84V107H448.754V92.2H451.034V97.26C451.421 96.7933 451.907 96.4333 452.494 96.18C453.094 95.9267 453.747 95.8 454.454 95.8ZM462.902 94.52C462.489 94.52 462.142 94.38 461.862 94.1C461.582 93.82 461.442 93.4733 461.442 93.06C461.442 92.6467 461.582 92.3 461.862 92.02C462.142 91.74 462.489 91.6 462.902 91.6C463.302 91.6 463.642 91.74 463.922 92.02C464.202 92.3 464.342 92.6467 464.342 93.06C464.342 93.4733 464.202 93.82 463.922 94.1C463.642 94.38 463.302 94.52 462.902 94.52ZM464.022 95.98V107H461.742V95.98H464.022ZM472.416 92.02C472.629 92.3133 472.856 92.6133 473.096 92.92C473.336 93.2267 473.576 93.5267 473.816 93.82C474.069 94.1133 474.309 94.3867 474.536 94.64V94.88H473.376C473.042 94.6533 472.702 94.4067 472.356 94.14C472.009 93.86 471.662 93.5667 471.316 93.26C470.969 93.5667 470.622 93.86 470.276 94.14C469.929 94.4067 469.589 94.6533 469.256 94.88H468.096V94.64C468.322 94.3867 468.556 94.1133 468.796 93.82C469.049 93.5267 469.296 93.2267 469.536 92.92C469.789 92.6133 470.016 92.3133 470.216 92.02H472.416ZM474.356 89.58C474.969 89.58 475.442 89.6933 475.776 89.92C476.122 90.1467 476.296 90.5 476.296 90.98C476.296 91.3667 476.176 91.6667 475.936 91.88C475.709 92.08 475.422 92.22 475.076 92.3L475.016 93.02H474.056L473.956 91.8C474.369 91.7467 474.669 91.6667 474.856 91.56C475.042 91.4533 475.136 91.2933 475.136 91.08C475.136 90.88 475.056 90.74 474.896 90.66C474.736 90.5667 474.516 90.52 474.236 90.52C474.102 90.52 473.969 90.5267 473.836 90.54C473.716 90.54 473.616 90.5533 473.536 90.58V89.64C473.616 89.6133 473.722 89.6 473.856 89.6C474.002 89.5867 474.169 89.58 474.356 89.58ZM471.416 96.02C472.362 96.02 473.176 96.22 473.856 96.62C474.536 97.0067 475.056 97.5667 475.416 98.3C475.789 99.0333 475.976 99.9 475.976 100.9V102.06H468.736C468.762 103.167 469.049 104.013 469.596 104.6C470.156 105.187 470.936 105.48 471.936 105.48C472.629 105.48 473.242 105.42 473.776 105.3C474.322 105.167 474.882 104.973 475.456 104.72V106.48C474.922 106.72 474.376 106.9 473.816 107.02C473.269 107.14 472.616 107.2 471.856 107.2C470.816 107.2 469.896 106.993 469.096 106.58C468.296 106.167 467.669 105.553 467.216 104.74C466.776 103.913 466.556 102.9 466.556 101.7C466.556 100.487 466.756 99.46 467.156 98.62C467.569 97.78 468.136 97.14 468.856 96.7C469.589 96.2467 470.442 96.02 471.416 96.02ZM471.416 97.66C470.656 97.66 470.042 97.9067 469.576 98.4C469.122 98.8933 468.856 99.5933 468.776 100.5H473.856C473.856 99.94 473.769 99.4467 473.596 99.02C473.422 98.5933 473.156 98.26 472.796 98.02C472.436 97.78 471.976 97.66 471.416 97.66ZM488.441 95.98V107H486.161V105.7C485.801 106.153 485.328 106.513 484.741 106.78C484.168 107.033 483.554 107.16 482.901 107.16C482.034 107.16 481.254 106.98 480.561 106.62C479.881 106.26 479.341 105.727 478.941 105.02C478.554 104.313 478.361 103.46 478.361 102.46V95.98H480.621V102.12C480.621 103.107 480.868 103.867 481.361 104.4C481.854 104.92 482.528 105.18 483.381 105.18C484.234 105.18 484.908 104.92 485.401 104.4C485.908 103.867 486.161 103.107 486.161 102.12V95.98H488.441ZM500.905 104.96L504.025 95.98H506.445L502.245 107H499.525L495.345 95.98H497.785L500.905 104.96ZM510.448 95.98V107H508.168V95.98H510.448ZM511.368 93.52V95.2L506.948 93.02V91.08L511.368 93.52ZM522.637 107.18C521.77 107.18 520.99 107.027 520.297 106.72C519.617 106.4 519.077 105.973 518.677 105.44C518.277 104.893 518.063 104.287 518.037 103.62H520.397C520.437 104.087 520.657 104.48 521.057 104.8C521.47 105.107 521.983 105.26 522.597 105.26C523.237 105.26 523.73 105.14 524.077 104.9C524.437 104.647 524.617 104.327 524.617 103.94C524.617 103.527 524.417 103.22 524.017 103.02C523.63 102.82 523.01 102.6 522.157 102.36C521.33 102.133 520.657 101.913 520.137 101.7C519.617 101.487 519.163 101.16 518.777 100.72C518.403 100.28 518.217 99.7 518.217 98.98C518.217 98.3933 518.39 97.86 518.737 97.38C519.083 96.8867 519.577 96.5 520.217 96.22C520.87 95.94 521.617 95.8 522.457 95.8C523.71 95.8 524.717 96.12 525.477 96.76C526.25 97.3867 526.663 98.2467 526.717 99.34H524.437C524.397 98.8467 524.197 98.4533 523.837 98.16C523.477 97.8667 522.99 97.72 522.377 97.72C521.777 97.72 521.317 97.8333 520.997 98.06C520.677 98.2867 520.517 98.5867 520.517 98.96C520.517 99.2533 520.623 99.5 520.837 99.7C521.05 99.9 521.31 100.06 521.617 100.18C521.923 100.287 522.377 100.427 522.977 100.6C523.777 100.813 524.43 101.033 524.937 101.26C525.457 101.473 525.903 101.793 526.277 102.22C526.65 102.647 526.843 103.213 526.857 103.92C526.857 104.547 526.683 105.107 526.337 105.6C525.99 106.093 525.497 106.48 524.857 106.76C524.23 107.04 523.49 107.18 522.637 107.18ZM528.56 101.44C528.56 100.333 528.787 99.3533 529.24 98.5C529.707 97.6467 530.334 96.9867 531.12 96.52C531.92 96.04 532.8 95.8 533.76 95.8C534.627 95.8 535.38 95.9733 536.02 96.32C536.674 96.6533 537.194 97.0733 537.58 97.58V95.98H539.88V107H537.58V105.36C537.194 105.88 536.667 106.313 536 106.66C535.334 107.007 534.574 107.18 533.72 107.18C532.774 107.18 531.907 106.94 531.12 106.46C530.334 105.967 529.707 105.287 529.24 104.42C528.787 103.54 528.56 102.547 528.56 101.44ZM537.58 101.48C537.58 100.72 537.42 100.06 537.1 99.5C536.794 98.94 536.387 98.5133 535.88 98.22C535.374 97.9267 534.827 97.78 534.24 97.78C533.654 97.78 533.107 97.9267 532.6 98.22C532.094 98.5 531.68 98.92 531.36 99.48C531.054 100.027 530.9 100.68 530.9 101.44C530.9 102.2 531.054 102.867 531.36 103.44C531.68 104.013 532.094 104.453 532.6 104.76C533.12 105.053 533.667 105.2 534.24 105.2C534.827 105.2 535.374 105.053 535.88 104.76C536.387 104.467 536.794 104.04 537.1 103.48C537.42 102.907 537.58 102.24 537.58 101.48ZM547.655 107.18C546.615 107.18 545.675 106.947 544.835 106.48C543.995 106 543.335 105.333 542.855 104.48C542.375 103.613 542.135 102.613 542.135 101.48C542.135 100.36 542.382 99.3667 542.875 98.5C543.368 97.6333 544.042 96.9667 544.895 96.5C545.748 96.0333 546.702 95.8 547.755 95.8C548.808 95.8 549.762 96.0333 550.615 96.5C551.468 96.9667 552.142 97.6333 552.635 98.5C553.128 99.3667 553.375 100.36 553.375 101.48C553.375 102.6 553.122 103.593 552.615 104.46C552.108 105.327 551.415 106 550.535 106.48C549.668 106.947 548.708 107.18 547.655 107.18ZM547.655 105.2C548.242 105.2 548.788 105.06 549.295 104.78C549.815 104.5 550.235 104.08 550.555 103.52C550.875 102.96 551.035 102.28 551.035 101.48C551.035 100.68 550.882 100.007 550.575 99.46C550.268 98.9 549.862 98.48 549.355 98.2C548.848 97.92 548.302 97.78 547.715 97.78C547.128 97.78 546.582 97.92 546.075 98.2C545.582 98.48 545.188 98.9 544.895 99.46C544.602 100.007 544.455 100.68 544.455 101.48C544.455 102.667 544.755 103.587 545.355 104.24C545.968 104.88 546.735 105.2 547.655 105.2ZM72.94 135.8C73.7933 135.8 74.5467 135.973 75.2 136.32C75.8667 136.653 76.3867 137.073 76.76 137.58V135.98H79.06V147.18C79.06 148.193 78.8467 149.093 78.42 149.88C77.9933 150.68 77.3733 151.307 76.56 151.76C75.76 152.213 74.8 152.44 73.68 152.44C72.1867 152.44 70.9467 152.087 69.96 151.38C68.9733 150.687 68.4133 149.74 68.28 148.54H70.54C70.7133 149.113 71.08 149.573 71.64 149.92C72.2133 150.28 72.8933 150.46 73.68 150.46C74.6 150.46 75.34 150.18 75.9 149.62C76.4733 149.06 76.76 148.247 76.76 147.18V145.34C76.3733 145.86 75.8467 146.3 75.18 146.66C74.5267 147.007 73.78 147.18 72.94 147.18C71.98 147.18 71.1 146.94 70.3 146.46C69.5133 145.967 68.8867 145.287 68.42 144.42C67.9667 143.54 67.74 142.547 67.74 141.44C67.74 140.333 67.9667 139.353 68.42 138.5C68.8867 137.647 69.5133 136.987 70.3 136.52C71.1 136.04 71.98 135.8 72.94 135.8ZM76.76 141.48C76.76 140.72 76.6 140.06 76.28 139.5C75.9733 138.94 75.5667 138.513 75.06 138.22C74.5533 137.927 74.0067 137.78 73.42 137.78C72.8333 137.78 72.2867 137.927 71.78 138.22C71.2733 138.5 70.86 138.92 70.54 139.48C70.2333 140.027 70.08 140.68 70.08 141.44C70.08 142.2 70.2333 142.867 70.54 143.44C70.86 144.013 71.2733 144.453 71.78 144.76C72.3 145.053 72.8467 145.2 73.42 145.2C74.0067 145.2 74.5533 145.053 75.06 144.76C75.5667 144.467 75.9733 144.04 76.28 143.48C76.6 142.907 76.76 142.24 76.76 141.48ZM83.2147 134.52C82.8014 134.52 82.4547 134.38 82.1747 134.1C81.8947 133.82 81.7547 133.473 81.7547 133.06C81.7547 132.647 81.8947 132.3 82.1747 132.02C82.4547 131.74 82.8014 131.6 83.2147 131.6C83.6147 131.6 83.9547 131.74 84.2347 132.02C84.5147 132.3 84.6547 132.647 84.6547 133.06C84.6547 133.473 84.5147 133.82 84.2347 134.1C83.9547 134.38 83.6147 134.52 83.2147 134.52ZM84.3347 135.98V147H82.0547V135.98H84.3347ZM86.5681 141.44C86.5681 140.333 86.7948 139.353 87.2481 138.5C87.7148 137.647 88.3415 136.987 89.1281 136.52C89.9281 136.04 90.8081 135.8 91.7681 135.8C92.6348 135.8 93.3881 135.973 94.0281 136.32C94.6815 136.653 95.2015 137.073 95.5881 137.58V135.98H97.8881V147H95.5881V145.36C95.2015 145.88 94.6748 146.313 94.0081 146.66C93.3415 147.007 92.5815 147.18 91.7281 147.18C90.7815 147.18 89.9148 146.94 89.1281 146.46C88.3415 145.967 87.7148 145.287 87.2481 144.42C86.7948 143.54 86.5681 142.547 86.5681 141.44ZM95.5881 141.48C95.5881 140.72 95.4281 140.06 95.1081 139.5C94.8015 138.94 94.3948 138.513 93.8881 138.22C93.3815 137.927 92.8348 137.78 92.2481 137.78C91.6615 137.78 91.1148 137.927 90.6081 138.22C90.1015 138.5 89.6881 138.92 89.3681 139.48C89.0615 140.027 88.9081 140.68 88.9081 141.44C88.9081 142.2 89.0615 142.867 89.3681 143.44C89.6881 144.013 90.1015 144.453 90.6081 144.76C91.1281 145.053 91.6748 145.2 92.2481 145.2C92.8348 145.2 93.3815 145.053 93.8881 144.76C94.3948 144.467 94.8015 144.04 95.1081 143.48C95.4281 142.907 95.5881 142.24 95.5881 141.48ZM94.6681 133.02L90.2481 135.2V133.52L94.6681 131.08V133.02ZM117.818 135.2H116.638V147H114.338V145.34C113.965 145.873 113.445 146.313 112.778 146.66C112.125 147.007 111.371 147.18 110.518 147.18C109.558 147.18 108.678 146.94 107.878 146.46C107.091 145.967 106.465 145.287 105.998 144.42C105.545 143.54 105.318 142.547 105.318 141.44C105.318 140.333 105.545 139.353 105.998 138.5C106.465 137.647 107.091 136.987 107.878 136.52C108.678 136.04 109.565 135.8 110.538 135.8C111.258 135.8 111.965 135.96 112.658 136.28C113.365 136.587 113.925 137 114.338 137.52V135.2H112.698V133.88H114.338V132.2H116.638V133.88H117.818V135.2ZM110.998 145.2C111.585 145.2 112.131 145.053 112.638 144.76C113.145 144.467 113.551 144.04 113.858 143.48C114.178 142.907 114.338 142.24 114.338 141.48C114.338 140.72 114.178 140.06 113.858 139.5C113.551 138.94 113.145 138.513 112.638 138.22C112.131 137.927 111.585 137.78 110.998 137.78C110.411 137.78 109.865 137.927 109.358 138.22C108.851 138.5 108.438 138.92 108.118 139.48C107.811 140.027 107.658 140.68 107.658 141.44C107.658 142.2 107.811 142.867 108.118 143.44C108.438 144.013 108.851 144.453 109.358 144.76C109.878 145.053 110.425 145.2 110.998 145.2ZM123.973 136.02C125.333 136.02 126.346 136.32 127.013 136.92C127.679 137.507 128.013 138.433 128.013 139.7V147H126.513L126.093 145.5H126.013C125.706 145.887 125.386 146.207 125.053 146.46C124.733 146.713 124.359 146.9 123.933 147.02C123.519 147.14 123.013 147.2 122.413 147.2C121.773 147.2 121.193 147.087 120.673 146.86C120.166 146.62 119.766 146.26 119.473 145.78C119.179 145.287 119.033 144.673 119.033 143.94C119.033 142.847 119.446 142.013 120.273 141.44C121.113 140.867 122.386 140.553 124.093 140.5L125.933 140.44V139.84C125.933 139.04 125.753 138.48 125.393 138.16C125.033 137.84 124.526 137.68 123.873 137.68C123.313 137.68 122.779 137.76 122.273 137.92C121.766 138.08 121.286 138.273 120.833 138.5L120.153 136.96C120.659 136.693 121.239 136.473 121.893 136.3C122.559 136.113 123.253 136.02 123.973 136.02ZM124.473 141.86C123.246 141.913 122.393 142.12 121.913 142.48C121.446 142.827 121.213 143.32 121.213 143.96C121.213 144.52 121.379 144.927 121.713 145.18C122.059 145.433 122.493 145.56 123.013 145.56C123.853 145.56 124.546 145.327 125.093 144.86C125.639 144.393 125.913 143.693 125.913 142.76V141.82L124.473 141.86ZM126.013 132.42C126.013 132.927 125.866 133.327 125.573 133.62C125.279 133.9 124.886 134.1 124.393 134.22L124.293 135.18H123.033L122.873 133.54C123.353 133.46 123.719 133.347 123.973 133.2C124.226 133.04 124.353 132.813 124.353 132.52C124.353 132.24 124.246 132.047 124.033 131.94C123.819 131.833 123.553 131.78 123.233 131.78C123.033 131.78 122.833 131.793 122.633 131.82C122.446 131.833 122.286 131.86 122.153 131.9V130.68C122.286 130.627 122.459 130.587 122.673 130.56C122.899 130.533 123.153 130.52 123.433 130.52C124.259 130.52 124.893 130.68 125.333 131C125.786 131.307 126.013 131.78 126.013 132.42ZM135.897 147.18C134.857 147.18 133.917 146.947 133.077 146.48C132.237 146 131.577 145.333 131.097 144.48C130.617 143.613 130.377 142.613 130.377 141.48C130.377 140.36 130.624 139.367 131.117 138.5C131.611 137.633 132.284 136.967 133.137 136.5C133.991 136.033 134.944 135.8 135.997 135.8C137.051 135.8 138.004 136.033 138.857 136.5C139.711 136.967 140.384 137.633 140.877 138.5C141.371 139.367 141.617 140.36 141.617 141.48C141.617 142.6 141.364 143.593 140.857 144.46C140.351 145.327 139.657 146 138.777 146.48C137.911 146.947 136.951 147.18 135.897 147.18ZM135.897 145.2C136.484 145.2 137.031 145.06 137.537 144.78C138.057 144.5 138.477 144.08 138.797 143.52C139.117 142.96 139.277 142.28 139.277 141.48C139.277 140.68 139.124 140.007 138.817 139.46C138.511 138.9 138.104 138.48 137.597 138.2C137.091 137.92 136.544 137.78 135.957 137.78C135.371 137.78 134.824 137.92 134.317 138.2C133.824 138.48 133.431 138.9 133.137 139.46C132.844 140.007 132.697 140.68 132.697 141.48C132.697 142.667 132.997 143.587 133.597 144.24C134.211 144.88 134.977 145.2 135.897 145.2ZM148.306 141.48C148.306 140.347 148.533 139.353 148.986 138.5C149.453 137.633 150.093 136.967 150.906 136.5C151.72 136.033 152.653 135.8 153.706 135.8C155.04 135.8 156.14 136.12 157.006 136.76C157.886 137.387 158.48 138.287 158.786 139.46H156.326C156.126 138.913 155.806 138.487 155.366 138.18C154.926 137.873 154.373 137.72 153.706 137.72C152.773 137.72 152.026 138.053 151.466 138.72C150.92 139.373 150.646 140.293 150.646 141.48C150.646 142.667 150.92 143.593 151.466 144.26C152.026 144.927 152.773 145.26 153.706 145.26C155.026 145.26 155.9 144.68 156.326 143.52H158.786C158.466 144.64 157.866 145.533 156.986 146.2C156.106 146.853 155.013 147.18 153.706 147.18C152.653 147.18 151.72 146.947 150.906 146.48C150.093 146 149.453 145.333 148.986 144.48C148.533 143.613 148.306 142.613 148.306 141.48ZM166.759 135.8C167.599 135.8 168.345 135.98 168.999 136.34C169.665 136.7 170.185 137.233 170.559 137.94C170.945 138.647 171.139 139.5 171.139 140.5V147H168.879V140.84C168.879 139.853 168.632 139.1 168.139 138.58C167.645 138.047 166.972 137.78 166.119 137.78C165.265 137.78 164.585 138.047 164.079 138.58C163.585 139.1 163.339 139.853 163.339 140.84V147H161.059V132.2H163.339V137.26C163.725 136.793 164.212 136.433 164.799 136.18C165.399 135.927 166.052 135.8 166.759 135.8ZM175.207 134.52C174.794 134.52 174.447 134.38 174.167 134.1C173.887 133.82 173.747 133.473 173.747 133.06C173.747 132.647 173.887 132.3 174.167 132.02C174.447 131.74 174.794 131.6 175.207 131.6C175.607 131.6 175.947 131.74 176.227 132.02C176.507 132.3 176.647 132.647 176.647 133.06C176.647 133.473 176.507 133.82 176.227 134.1C175.947 134.38 175.607 134.52 175.207 134.52ZM176.327 135.98V147H174.047V135.98H176.327ZM180.56 134.64C180.787 134.387 181.02 134.12 181.26 133.84C181.5 133.547 181.74 133.247 181.98 132.94C182.234 132.633 182.46 132.333 182.66 132.04H184.88C185.094 132.333 185.32 132.633 185.56 132.94C185.8 133.247 186.04 133.547 186.28 133.84C186.534 134.12 186.774 134.387 187 134.64V134.88H185.82C185.487 134.653 185.147 134.407 184.8 134.14C184.454 133.86 184.107 133.567 183.76 133.26C183.427 133.567 183.08 133.86 182.72 134.14C182.374 134.407 182.034 134.653 181.7 134.88H180.56V134.64ZM180.24 132.98C179.867 132.7 179.5 132.393 179.14 132.06C178.78 131.713 178.454 131.347 178.16 130.96V130.76H180.08C180.294 131.187 180.494 131.547 180.68 131.84C180.88 132.133 181.107 132.433 181.36 132.74V132.98H180.24ZM183.72 136.02C184.667 136.02 185.48 136.22 186.16 136.62C186.84 137.007 187.36 137.567 187.72 138.3C188.094 139.033 188.28 139.9 188.28 140.9V142.06H181.04C181.067 143.167 181.354 144.013 181.9 144.6C182.46 145.187 183.24 145.48 184.24 145.48C184.934 145.48 185.547 145.42 186.08 145.3C186.627 145.167 187.187 144.973 187.76 144.72V146.48C187.227 146.72 186.68 146.9 186.12 147.02C185.574 147.14 184.92 147.2 184.16 147.2C183.12 147.2 182.2 146.993 181.4 146.58C180.6 146.167 179.974 145.553 179.52 144.74C179.08 143.913 178.86 142.9 178.86 141.7C178.86 140.487 179.06 139.46 179.46 138.62C179.874 137.78 180.44 137.14 181.16 136.7C181.894 136.247 182.747 136.02 183.72 136.02ZM183.72 137.66C182.96 137.66 182.347 137.907 181.88 138.4C181.427 138.893 181.16 139.593 181.08 140.5H186.16C186.16 139.94 186.074 139.447 185.9 139.02C185.727 138.593 185.46 138.26 185.1 138.02C184.74 137.78 184.28 137.66 183.72 137.66ZM200.746 135.98V147H198.466V145.7C198.106 146.153 197.632 146.513 197.046 146.78C196.472 147.033 195.859 147.16 195.206 147.16C194.339 147.16 193.559 146.98 192.866 146.62C192.186 146.26 191.646 145.727 191.246 145.02C190.859 144.313 190.666 143.46 190.666 142.46V135.98H192.926V142.12C192.926 143.107 193.172 143.867 193.666 144.4C194.159 144.92 194.832 145.18 195.686 145.18C196.539 145.18 197.212 144.92 197.706 144.4C198.212 143.867 198.466 143.107 198.466 142.12V135.98H200.746ZM213.209 144.96L216.329 135.98H218.749L214.549 147H211.829L207.649 135.98H210.089L213.209 144.96ZM219.713 141.44C219.713 140.333 219.939 139.353 220.393 138.5C220.859 137.647 221.486 136.987 222.273 136.52C223.073 136.04 223.953 135.8 224.913 135.8C225.779 135.8 226.533 135.973 227.173 136.32C227.826 136.653 228.346 137.073 228.733 137.58V135.98H231.033V147H228.733V145.36C228.346 145.88 227.819 146.313 227.153 146.66C226.486 147.007 225.726 147.18 224.873 147.18C223.926 147.18 223.059 146.94 222.273 146.46C221.486 145.967 220.859 145.287 220.393 144.42C219.939 143.54 219.713 142.547 219.713 141.44ZM228.733 141.48C228.733 140.72 228.573 140.06 228.253 139.5C227.946 138.94 227.539 138.513 227.033 138.22C226.526 137.927 225.979 137.78 225.393 137.78C224.806 137.78 224.259 137.927 223.753 138.22C223.246 138.5 222.833 138.92 222.513 139.48C222.206 140.027 222.053 140.68 222.053 141.44C222.053 142.2 222.206 142.867 222.513 143.44C222.833 144.013 223.246 144.453 223.753 144.76C224.273 145.053 224.819 145.2 225.393 145.2C225.979 145.2 226.526 145.053 227.033 144.76C227.539 144.467 227.946 144.04 228.253 143.48C228.573 142.907 228.733 142.24 228.733 141.48ZM227.813 133.52V135.2L223.393 133.02V131.08L227.813 133.52ZM238.463 141.48C238.463 140.347 238.689 139.353 239.143 138.5C239.609 137.633 240.249 136.967 241.063 136.5C241.876 136.033 242.809 135.8 243.863 135.8C245.196 135.8 246.296 136.12 247.163 136.76C248.043 137.387 248.636 138.287 248.943 139.46H246.483C246.283 138.913 245.963 138.487 245.523 138.18C245.083 137.873 244.529 137.72 243.863 137.72C242.929 137.72 242.183 138.053 241.623 138.72C241.076 139.373 240.803 140.293 240.803 141.48C240.803 142.667 241.076 143.593 241.623 144.26C242.183 144.927 242.929 145.26 243.863 145.26C245.183 145.26 246.056 144.68 246.483 143.52H248.943C248.623 144.64 248.023 145.533 247.143 146.2C246.263 146.853 245.169 147.18 243.863 147.18C242.809 147.18 241.876 146.947 241.063 146.48C240.249 146 239.609 145.333 239.143 144.48C238.689 143.613 238.463 142.613 238.463 141.48ZM250.455 141.44C250.455 140.333 250.682 139.353 251.135 138.5C251.602 137.647 252.228 136.987 253.015 136.52C253.815 136.04 254.695 135.8 255.655 135.8C256.522 135.8 257.275 135.973 257.915 136.32C258.568 136.653 259.088 137.073 259.475 137.58V135.98H261.775V147H259.475V145.36C259.088 145.88 258.562 146.313 257.895 146.66C257.228 147.007 256.468 147.18 255.615 147.18C254.668 147.18 253.802 146.94 253.015 146.46C252.228 145.967 251.602 145.287 251.135 144.42C250.682 143.54 250.455 142.547 250.455 141.44ZM259.475 141.48C259.475 140.72 259.315 140.06 258.995 139.5C258.688 138.94 258.282 138.513 257.775 138.22C257.268 137.927 256.722 137.78 256.135 137.78C255.548 137.78 255.002 137.927 254.495 138.22C253.988 138.5 253.575 138.92 253.255 139.48C252.948 140.027 252.795 140.68 252.795 141.44C252.795 142.2 252.948 142.867 253.255 143.44C253.575 144.013 253.988 144.453 254.495 144.76C255.015 145.053 255.562 145.2 256.135 145.2C256.722 145.2 257.268 145.053 257.775 144.76C258.282 144.467 258.688 144.04 258.995 143.48C259.315 142.907 259.475 142.24 259.475 141.48ZM258.555 133.02L254.135 135.2V133.52L258.555 131.08V133.02ZM264.01 141.48C264.01 140.347 264.236 139.353 264.69 138.5C265.156 137.633 265.796 136.967 266.61 136.5C267.423 136.033 268.356 135.8 269.41 135.8C270.743 135.8 271.843 136.12 272.71 136.76C273.59 137.387 274.183 138.287 274.49 139.46H272.03C271.83 138.913 271.51 138.487 271.07 138.18C270.63 137.873 270.076 137.72 269.41 137.72C268.476 137.72 267.73 138.053 267.17 138.72C266.623 139.373 266.35 140.293 266.35 141.48C266.35 142.667 266.623 143.593 267.17 144.26C267.73 144.927 268.476 145.26 269.41 145.26C270.73 145.26 271.603 144.68 272.03 143.52H274.49C274.17 144.64 273.57 145.533 272.69 146.2C271.81 146.853 270.716 147.18 269.41 147.18C268.356 147.18 267.423 146.947 266.61 146.48C265.796 146 265.156 145.333 264.69 144.48C264.236 143.613 264.01 142.613 264.01 141.48ZM282.462 135.8C283.302 135.8 284.048 135.98 284.702 136.34C285.368 136.7 285.888 137.233 286.262 137.94C286.648 138.647 286.842 139.5 286.842 140.5V147H284.582V140.84C284.582 139.853 284.335 139.1 283.842 138.58C283.348 138.047 282.675 137.78 281.822 137.78C280.968 137.78 280.288 138.047 279.782 138.58C279.288 139.1 279.042 139.853 279.042 140.84V147H276.762V132.2H279.042V137.26C279.428 136.793 279.915 136.433 280.502 136.18C281.102 135.927 281.755 135.8 282.462 135.8ZM297.605 137.84V143.94C297.605 144.353 297.699 144.653 297.885 144.84C298.085 145.013 298.419 145.1 298.885 145.1H300.285V147H298.485C297.459 147 296.672 146.76 296.125 146.28C295.579 145.8 295.305 145.02 295.305 143.94V137.84H294.005V135.98H295.305V133.24H297.605V135.98H300.285V137.84H297.605ZM308.087 135.8C308.927 135.8 309.673 135.98 310.327 136.34C310.993 136.7 311.513 137.233 311.887 137.94C312.273 138.647 312.467 139.5 312.467 140.5V147H310.207V140.84C310.207 139.853 309.96 139.1 309.467 138.58C308.973 138.047 308.3 137.78 307.447 137.78C306.593 137.78 305.913 138.047 305.407 138.58C304.913 139.1 304.667 139.853 304.667 140.84V147H302.387V132.2H304.667V137.26C305.053 136.793 305.54 136.433 306.127 136.18C306.727 135.927 307.38 135.8 308.087 135.8ZM317.655 136.22V147H315.535V136.22H317.655ZM316.615 132.12C316.935 132.12 317.215 132.213 317.455 132.4C317.695 132.587 317.815 132.9 317.815 133.34C317.815 133.767 317.695 134.08 317.455 134.28C317.215 134.467 316.935 134.56 316.615 134.56C316.268 134.56 315.975 134.467 315.735 134.28C315.508 134.08 315.395 133.767 315.395 133.34C315.395 132.9 315.508 132.587 315.735 132.4C315.975 132.213 316.268 132.12 316.615 132.12ZM316.615 150.72C316.282 150.72 315.995 150.62 315.755 150.42C315.515 150.233 315.395 149.927 315.395 149.5C315.395 149.06 315.515 148.747 315.755 148.56C315.995 148.373 316.282 148.28 316.615 148.28C316.935 148.28 317.215 148.373 317.455 148.56C317.695 148.747 317.815 149.06 317.815 149.5C317.815 149.927 317.695 150.233 317.455 150.42C317.215 150.62 316.935 150.72 316.615 150.72ZM328.68 137.84V143.94C328.68 144.353 328.773 144.653 328.96 144.84C329.16 145.013 329.493 145.1 329.96 145.1H331.36V147H329.56C328.533 147 327.746 146.76 327.2 146.28C326.653 145.8 326.38 145.02 326.38 143.94V137.84H325.08V135.98H326.38V133.24H328.68V135.98H331.36V137.84H328.68ZM335.741 137.58C336.074 137.02 336.514 136.587 337.061 136.28C337.621 135.96 338.281 135.8 339.041 135.8V138.16H338.461C337.568 138.16 336.888 138.387 336.421 138.84C335.968 139.293 335.741 140.08 335.741 141.2V147H333.461V135.98H335.741V137.58ZM354.377 134.78C354.283 135.273 354.157 135.747 353.997 136.2C353.837 136.653 353.617 137.06 353.337 137.42C353.057 137.78 352.69 138.08 352.237 138.32C351.797 138.56 351.243 138.72 350.577 138.8V147H348.877L348.577 145.58H348.477C348.25 145.953 347.957 146.26 347.597 146.5C347.25 146.74 346.863 146.913 346.437 147.02C346.01 147.14 345.57 147.2 345.117 147.2C344.277 147.2 343.563 147.067 342.977 146.8C342.39 146.52 341.943 146.093 341.637 145.52C341.343 144.933 341.197 144.187 341.197 143.28V136.24H343.337V142.96C343.337 143.8 343.51 144.427 343.857 144.84C344.217 145.253 344.77 145.46 345.517 145.46C346.623 145.46 347.39 145.133 347.817 144.48C348.243 143.827 348.457 142.893 348.457 141.68V136.24H350.577V137.4C350.977 137.32 351.283 137.153 351.497 136.9C351.71 136.633 351.857 136.3 351.937 135.9C352.017 135.5 352.057 135.053 352.057 134.56H354.237L354.377 134.78ZM364.781 141.6C364.781 142.787 364.574 143.8 364.161 144.64C363.748 145.48 363.154 146.12 362.381 146.56C361.621 146.987 360.721 147.2 359.681 147.2C358.721 147.2 357.861 146.987 357.101 146.56C356.341 146.12 355.741 145.48 355.301 144.64C354.874 143.8 354.661 142.787 354.661 141.6C354.661 139.813 355.114 138.44 356.021 137.48C356.928 136.507 358.168 136.02 359.741 136.02C360.461 136.02 361.121 136.14 361.721 136.38C362.334 136.607 362.861 136.94 363.301 137.38C363.688 137.273 363.981 137.087 364.181 136.82C364.381 136.54 364.514 136.213 364.581 135.84C364.648 135.453 364.681 135.033 364.681 134.58H366.861L367.001 134.8C366.881 135.427 366.714 135.993 366.501 136.5C366.288 136.993 365.994 137.42 365.621 137.78C365.248 138.14 364.754 138.413 364.141 138.6C364.341 139.013 364.494 139.473 364.601 139.98C364.721 140.473 364.781 141.013 364.781 141.6ZM356.841 141.6C356.841 142.44 356.941 143.147 357.141 143.72C357.341 144.293 357.654 144.727 358.081 145.02C358.508 145.313 359.054 145.46 359.721 145.46C360.401 145.46 360.948 145.313 361.361 145.02C361.788 144.727 362.101 144.293 362.301 143.72C362.501 143.147 362.601 142.44 362.601 141.6C362.601 140.747 362.501 140.04 362.301 139.48C362.101 138.92 361.788 138.5 361.361 138.22C360.934 137.927 360.381 137.78 359.701 137.78C358.701 137.78 357.974 138.1 357.521 138.74C357.068 139.38 356.841 140.333 356.841 141.6ZM359.201 131.68C359.361 131.973 359.561 132.307 359.801 132.68C360.041 133.04 360.288 133.393 360.541 133.74C360.808 134.087 361.041 134.387 361.241 134.64V134.88H359.821C359.594 134.693 359.328 134.473 359.021 134.22C358.728 133.953 358.428 133.68 358.121 133.4C357.828 133.107 357.554 132.827 357.301 132.56C357.061 132.293 356.874 132.067 356.741 131.88V131.68H359.201ZM373.376 135.8C374.243 135.8 375.016 135.98 375.696 136.34C376.39 136.7 376.93 137.233 377.316 137.94C377.703 138.647 377.896 139.5 377.896 140.5V147H375.636V140.84C375.636 139.853 375.39 139.1 374.896 138.58C374.403 138.047 373.73 137.78 372.876 137.78C372.023 137.78 371.343 138.047 370.836 138.58C370.343 139.1 370.096 139.853 370.096 140.84V147H367.816V135.98H370.096V137.24C370.47 136.787 370.943 136.433 371.516 136.18C372.103 135.927 372.723 135.8 373.376 135.8ZM385.245 135.8C386.098 135.8 386.851 135.973 387.505 136.32C388.171 136.653 388.691 137.073 389.065 137.58V135.98H391.365V147.18C391.365 148.193 391.151 149.093 390.725 149.88C390.298 150.68 389.678 151.307 388.865 151.76C388.065 152.213 387.105 152.44 385.985 152.44C384.491 152.44 383.251 152.087 382.265 151.38C381.278 150.687 380.718 149.74 380.585 148.54H382.845C383.018 149.113 383.385 149.573 383.945 149.92C384.518 150.28 385.198 150.46 385.985 150.46C386.905 150.46 387.645 150.18 388.205 149.62C388.778 149.06 389.065 148.247 389.065 147.18V145.34C388.678 145.86 388.151 146.3 387.485 146.66C386.831 147.007 386.085 147.18 385.245 147.18C384.285 147.18 383.405 146.94 382.605 146.46C381.818 145.967 381.191 145.287 380.725 144.42C380.271 143.54 380.045 142.547 380.045 141.44C380.045 140.333 380.271 139.353 380.725 138.5C381.191 137.647 381.818 136.987 382.605 136.52C383.405 136.04 384.285 135.8 385.245 135.8ZM389.065 141.48C389.065 140.72 388.905 140.06 388.585 139.5C388.278 138.94 387.871 138.513 387.365 138.22C386.858 137.927 386.311 137.78 385.725 137.78C385.138 137.78 384.591 137.927 384.085 138.22C383.578 138.5 383.165 138.92 382.845 139.48C382.538 140.027 382.385 140.68 382.385 141.44C382.385 142.2 382.538 142.867 382.845 143.44C383.165 144.013 383.578 144.453 384.085 144.76C384.605 145.053 385.151 145.2 385.725 145.2C386.311 145.2 386.858 145.053 387.365 144.76C387.871 144.467 388.278 144.04 388.585 143.48C388.905 142.907 389.065 142.24 389.065 141.48ZM403.815 144.96L406.935 135.98H409.355L405.155 147H402.435L398.255 135.98H400.695L403.815 144.96ZM415.418 136.02C416.778 136.02 417.791 136.32 418.458 136.92C419.125 137.507 419.458 138.433 419.458 139.7V147H417.958L417.538 145.5H417.458C417.151 145.887 416.831 146.207 416.498 146.46C416.178 146.713 415.805 146.9 415.378 147.02C414.965 147.14 414.458 147.2 413.858 147.2C413.218 147.2 412.638 147.087 412.118 146.86C411.611 146.62 411.211 146.26 410.918 145.78C410.625 145.287 410.478 144.673 410.478 143.94C410.478 142.847 410.891 142.013 411.718 141.44C412.558 140.867 413.831 140.553 415.538 140.5L417.378 140.44V139.84C417.378 139.04 417.198 138.48 416.838 138.16C416.478 137.84 415.971 137.68 415.318 137.68C414.758 137.68 414.225 137.76 413.718 137.92C413.211 138.08 412.731 138.273 412.278 138.5L411.598 136.96C412.105 136.693 412.685 136.473 413.338 136.3C414.005 136.113 414.698 136.02 415.418 136.02ZM415.918 141.86C414.691 141.913 413.838 142.12 413.358 142.48C412.891 142.827 412.658 143.32 412.658 143.96C412.658 144.52 412.825 144.927 413.158 145.18C413.505 145.433 413.938 145.56 414.458 145.56C415.298 145.56 415.991 145.327 416.538 144.86C417.085 144.393 417.358 143.693 417.358 142.76V141.82L415.918 141.86ZM416.478 131.68C416.651 131.973 416.885 132.307 417.178 132.68C417.485 133.04 417.798 133.4 418.118 133.76C418.451 134.107 418.738 134.4 418.978 134.64V134.88H417.518C417.171 134.667 416.805 134.407 416.418 134.1C416.045 133.793 415.678 133.46 415.318 133.1C414.958 133.46 414.591 133.793 414.218 134.1C413.858 134.393 413.505 134.653 413.158 134.88H411.718V134.64C411.971 134.387 412.251 134.087 412.558 133.74C412.878 133.393 413.185 133.04 413.478 132.68C413.771 132.307 414.011 131.973 414.198 131.68H416.478ZM415.158 150.72C414.825 150.72 414.538 150.62 414.298 150.42C414.058 150.233 413.938 149.927 413.938 149.5C413.938 149.06 414.058 148.747 414.298 148.56C414.538 148.373 414.825 148.28 415.158 148.28C415.478 148.28 415.758 148.373 415.998 148.56C416.238 148.747 416.358 149.06 416.358 149.5C416.358 149.927 416.238 150.233 415.998 150.42C415.758 150.62 415.478 150.72 415.158 150.72ZM428.123 135.8C428.989 135.8 429.763 135.98 430.443 136.34C431.136 136.7 431.676 137.233 432.063 137.94C432.449 138.647 432.643 139.5 432.643 140.5V147H430.383V140.84C430.383 139.853 430.136 139.1 429.643 138.58C429.149 138.047 428.476 137.78 427.623 137.78C426.769 137.78 426.089 138.047 425.583 138.58C425.089 139.1 424.843 139.853 424.843 140.84V147H422.563V135.98H424.843V137.24C425.216 136.787 425.689 136.433 426.263 136.18C426.849 135.927 427.469 135.8 428.123 135.8ZM446.446 135.8C447.286 135.8 448.033 135.98 448.686 136.34C449.353 136.7 449.873 137.233 450.246 137.94C450.633 138.647 450.826 139.5 450.826 140.5V147H448.566V140.84C448.566 139.853 448.319 139.1 447.826 138.58C447.333 138.047 446.659 137.78 445.806 137.78C444.953 137.78 444.273 138.047 443.766 138.58C443.273 139.1 443.026 139.853 443.026 140.84V147H440.746V132.2H443.026V137.26C443.413 136.793 443.899 136.433 444.486 136.18C445.086 135.927 445.739 135.8 446.446 135.8ZM452.974 141.44C452.974 140.333 453.201 139.353 453.654 138.5C454.121 137.647 454.748 136.987 455.534 136.52C456.334 136.04 457.214 135.8 458.174 135.8C459.041 135.8 459.794 135.973 460.434 136.32C461.088 136.653 461.608 137.073 461.994 137.58V135.98H464.294V147H461.994V145.36C461.608 145.88 461.081 146.313 460.414 146.66C459.748 147.007 458.988 147.18 458.134 147.18C457.188 147.18 456.321 146.94 455.534 146.46C454.748 145.967 454.121 145.287 453.654 144.42C453.201 143.54 452.974 142.547 452.974 141.44ZM461.994 141.48C461.994 140.72 461.834 140.06 461.514 139.5C461.208 138.94 460.801 138.513 460.294 138.22C459.788 137.927 459.241 137.78 458.654 137.78C458.068 137.78 457.521 137.927 457.014 138.22C456.508 138.5 456.094 138.92 455.774 139.48C455.468 140.027 455.314 140.68 455.314 141.44C455.314 142.2 455.468 142.867 455.774 143.44C456.094 144.013 456.508 144.453 457.014 144.76C457.534 145.053 458.081 145.2 458.654 145.2C459.241 145.2 459.788 145.053 460.294 144.76C460.801 144.467 461.208 144.04 461.514 143.48C461.834 142.907 461.994 142.24 461.994 141.48ZM461.074 133.52V135.2L456.654 133.02V131.08L461.074 133.52ZM472.849 135.8C473.716 135.8 474.489 135.98 475.169 136.34C475.862 136.7 476.402 137.233 476.789 137.94C477.176 138.647 477.369 139.5 477.369 140.5V147H475.109V140.84C475.109 139.853 474.862 139.1 474.369 138.58C473.876 138.047 473.202 137.78 472.349 137.78C471.496 137.78 470.816 138.047 470.309 138.58C469.816 139.1 469.569 139.853 469.569 140.84V147H467.289V135.98H469.569V137.24C469.942 136.787 470.416 136.433 470.989 136.18C471.576 135.927 472.196 135.8 472.849 135.8ZM485.977 135.8C486.817 135.8 487.564 135.98 488.217 136.34C488.884 136.7 489.404 137.233 489.777 137.94C490.164 138.647 490.357 139.5 490.357 140.5V147H488.097V140.84C488.097 139.853 487.851 139.1 487.357 138.58C486.864 138.047 486.191 137.78 485.337 137.78C484.484 137.78 483.804 138.047 483.297 138.58C482.804 139.1 482.557 139.853 482.557 140.84V147H480.277V132.2H482.557V137.26C482.944 136.793 483.431 136.433 484.017 136.18C484.617 135.927 485.271 135.8 485.977 135.8ZM500.741 137.6C501.128 137.093 501.654 136.667 502.321 136.32C502.988 135.973 503.741 135.8 504.581 135.8C505.541 135.8 506.414 136.04 507.201 136.52C508.001 136.987 508.628 137.647 509.081 138.5C509.534 139.353 509.761 140.333 509.761 141.44C509.761 142.547 509.534 143.54 509.081 144.42C508.628 145.287 508.001 145.967 507.201 146.46C506.414 146.94 505.541 147.18 504.581 147.18C503.741 147.18 502.994 147.013 502.341 146.68C501.688 146.333 501.154 145.907 500.741 145.4V152.24H498.461V135.98H500.741V137.6ZM507.441 141.44C507.441 140.68 507.281 140.027 506.961 139.48C506.654 138.92 506.241 138.5 505.721 138.22C505.214 137.927 504.668 137.78 504.081 137.78C503.508 137.78 502.961 137.927 502.441 138.22C501.934 138.513 501.521 138.94 501.201 139.5C500.894 140.06 500.741 140.72 500.741 141.48C500.741 142.24 500.894 142.907 501.201 143.48C501.521 144.04 501.934 144.467 502.441 144.76C502.961 145.053 503.508 145.2 504.081 145.2C504.668 145.2 505.214 145.053 505.721 144.76C506.241 144.453 506.654 144.013 506.961 143.44C507.281 142.867 507.441 142.2 507.441 141.44ZM517.716 135.8C518.556 135.8 519.302 135.98 519.956 136.34C520.622 136.7 521.142 137.233 521.516 137.94C521.902 138.647 522.096 139.5 522.096 140.5V147H519.836V140.84C519.836 139.853 519.589 139.1 519.096 138.58C518.602 138.047 517.929 137.78 517.076 137.78C516.222 137.78 515.542 138.047 515.036 138.58C514.542 139.1 514.296 139.853 514.296 140.84V147H512.016V132.2H514.296V137.26C514.682 136.793 515.169 136.433 515.756 136.18C516.356 135.927 517.009 135.8 517.716 135.8ZM527.284 135.98V147H525.004V135.98H527.284ZM528.204 133.02L523.784 135.2V133.52L528.204 131.08V133.02ZM529.517 141.44C529.517 140.333 529.744 139.353 530.197 138.5C530.664 137.647 531.291 136.987 532.077 136.52C532.877 136.04 533.757 135.8 534.717 135.8C535.584 135.8 536.337 135.973 536.977 136.32C537.631 136.653 538.151 137.073 538.537 137.58V135.98H540.837V147H538.537V145.36C538.151 145.88 537.624 146.313 536.957 146.66C536.291 147.007 535.531 147.18 534.677 147.18C533.731 147.18 532.864 146.94 532.077 146.46C531.291 145.967 530.664 145.287 530.197 144.42C529.744 143.54 529.517 142.547 529.517 141.44ZM538.537 141.48C538.537 140.72 538.377 140.06 538.057 139.5C537.751 138.94 537.344 138.513 536.837 138.22C536.331 137.927 535.784 137.78 535.197 137.78C534.611 137.78 534.064 137.927 533.557 138.22C533.051 138.5 532.637 138.92 532.317 139.48C532.011 140.027 531.857 140.68 531.857 141.44C531.857 142.2 532.011 142.867 532.317 143.44C532.637 144.013 533.051 144.453 533.557 144.76C534.077 145.053 534.624 145.2 535.197 145.2C535.784 145.2 536.331 145.053 536.837 144.76C537.344 144.467 537.751 144.04 538.057 143.48C538.377 142.907 538.537 142.24 538.537 141.48ZM72.5 187.18C71.6333 187.18 70.8533 187.027 70.16 186.72C69.48 186.4 68.94 185.973 68.54 185.44C68.14 184.893 67.9267 184.287 67.9 183.62H70.26C70.3 184.087 70.52 184.48 70.92 184.8C71.3333 185.107 71.8467 185.26 72.46 185.26C73.1 185.26 73.5933 185.14 73.94 184.9C74.3 184.647 74.48 184.327 74.48 183.94C74.48 183.527 74.28 183.22 73.88 183.02C73.4933 182.82 72.8733 182.6 72.02 182.36C71.1933 182.133 70.52 181.913 70 181.7C69.48 181.487 69.0267 181.16 68.64 180.72C68.2667 180.28 68.08 179.7 68.08 178.98C68.08 178.393 68.2533 177.86 68.6 177.38C68.9467 176.887 69.44 176.5 70.08 176.22C70.7333 175.94 71.48 175.8 72.32 175.8C73.5733 175.8 74.58 176.12 75.34 176.76C76.1133 177.387 76.5267 178.247 76.58 179.34H74.3C74.26 178.847 74.06 178.453 73.7 178.16C73.34 177.867 72.8533 177.72 72.24 177.72C71.64 177.72 71.18 177.833 70.86 178.06C70.54 178.287 70.38 178.587 70.38 178.96C70.38 179.253 70.4867 179.5 70.7 179.7C70.9133 179.9 71.1733 180.06 71.48 180.18C71.7867 180.287 72.24 180.427 72.84 180.6C73.64 180.813 74.2933 181.033 74.8 181.26C75.32 181.473 75.7667 181.793 76.14 182.22C76.5133 182.647 76.7067 183.213 76.72 183.92C76.72 184.547 76.5467 185.107 76.2 185.6C75.8533 186.093 75.36 186.48 74.72 186.76C74.0933 187.04 73.3533 187.18 72.5 187.18ZM78.4236 181.44C78.4236 180.333 78.6503 179.353 79.1036 178.5C79.5703 177.647 80.1969 176.987 80.9836 176.52C81.7836 176.04 82.6636 175.8 83.6236 175.8C84.4903 175.8 85.2436 175.973 85.8836 176.32C86.5369 176.653 87.0569 177.073 87.4436 177.58V175.98H89.7436V187H87.4436V185.36C87.0569 185.88 86.5303 186.313 85.8636 186.66C85.1969 187.007 84.4369 187.18 83.5836 187.18C82.6369 187.18 81.7703 186.94 80.9836 186.46C80.1969 185.967 79.5703 185.287 79.1036 184.42C78.6503 183.54 78.4236 182.547 78.4236 181.44ZM87.4436 181.48C87.4436 180.72 87.2836 180.06 86.9636 179.5C86.6569 178.94 86.2503 178.513 85.7436 178.22C85.2369 177.927 84.6903 177.78 84.1036 177.78C83.5169 177.78 82.9703 177.927 82.4636 178.22C81.9569 178.5 81.5436 178.92 81.2236 179.48C80.9169 180.027 80.7636 180.68 80.7636 181.44C80.7636 182.2 80.9169 182.867 81.2236 183.44C81.5436 184.013 81.9569 184.453 82.4636 184.76C82.9836 185.053 83.5303 185.2 84.1036 185.2C84.6903 185.2 85.2369 185.053 85.7436 184.76C86.2503 184.467 86.6569 184.04 86.9636 183.48C87.2836 182.907 87.4436 182.24 87.4436 181.48ZM102.718 175.98V187H100.438V185.7C100.078 186.153 99.6049 186.513 99.0183 186.78C98.4449 187.033 97.8316 187.16 97.1783 187.16C96.3116 187.16 95.5316 186.98 94.8383 186.62C94.1583 186.26 93.6183 185.727 93.2183 185.02C92.8316 184.313 92.6383 183.46 92.6383 182.46V175.98H94.8983V182.12C94.8983 183.107 95.1449 183.867 95.6383 184.4C96.1316 184.92 96.8049 185.18 97.6583 185.18C98.5116 185.18 99.1849 184.92 99.6783 184.4C100.185 183.867 100.438 183.107 100.438 182.12V175.98H102.718ZM113.202 177.62C113.589 177.087 114.115 176.653 114.782 176.32C115.462 175.973 116.215 175.8 117.042 175.8C118.015 175.8 118.895 176.033 119.682 176.5C120.469 176.967 121.089 177.633 121.542 178.5C121.995 179.353 122.222 180.333 122.222 181.44C122.222 182.547 121.995 183.54 121.542 184.42C121.089 185.287 120.462 185.967 119.662 186.46C118.875 186.94 118.002 187.18 117.042 187.18C116.189 187.18 115.429 187.013 114.762 186.68C114.109 186.347 113.589 185.92 113.202 185.4V187H110.922V172.2H113.202V177.62ZM119.902 181.44C119.902 180.68 119.742 180.027 119.422 179.48C119.115 178.92 118.702 178.5 118.182 178.22C117.675 177.927 117.129 177.78 116.542 177.78C115.969 177.78 115.422 177.927 114.902 178.22C114.395 178.513 113.982 178.94 113.662 179.5C113.355 180.06 113.202 180.72 113.202 181.48C113.202 182.24 113.355 182.907 113.662 183.48C113.982 184.04 114.395 184.467 114.902 184.76C115.422 185.053 115.969 185.2 116.542 185.2C117.129 185.2 117.675 185.053 118.182 184.76C118.702 184.453 119.115 184.013 119.422 183.44C119.742 182.867 119.902 182.2 119.902 181.44ZM125.637 174.52C125.223 174.52 124.877 174.38 124.597 174.1C124.317 173.82 124.177 173.473 124.177 173.06C124.177 172.647 124.317 172.3 124.597 172.02C124.877 171.74 125.223 171.6 125.637 171.6C126.037 171.6 126.377 171.74 126.657 172.02C126.937 172.3 127.077 172.647 127.077 173.06C127.077 173.473 126.937 173.82 126.657 174.1C126.377 174.38 126.037 174.52 125.637 174.52ZM126.757 175.98V187H124.477V175.98H126.757ZM135.15 172.02C135.363 172.313 135.59 172.613 135.83 172.92C136.07 173.227 136.31 173.527 136.55 173.82C136.803 174.113 137.043 174.387 137.27 174.64V174.88H136.11C135.777 174.653 135.437 174.407 135.09 174.14C134.743 173.86 134.397 173.567 134.05 173.26C133.703 173.567 133.357 173.86 133.01 174.14C132.663 174.407 132.323 174.653 131.99 174.88H130.83V174.64C131.057 174.387 131.29 174.113 131.53 173.82C131.783 173.527 132.03 173.227 132.27 172.92C132.523 172.613 132.75 172.313 132.95 172.02H135.15ZM137.09 169.58C137.703 169.58 138.177 169.693 138.51 169.92C138.857 170.147 139.03 170.5 139.03 170.98C139.03 171.367 138.91 171.667 138.67 171.88C138.443 172.08 138.157 172.22 137.81 172.3L137.75 173.02H136.79L136.69 171.8C137.103 171.747 137.403 171.667 137.59 171.56C137.777 171.453 137.87 171.293 137.87 171.08C137.87 170.88 137.79 170.74 137.63 170.66C137.47 170.567 137.25 170.52 136.97 170.52C136.837 170.52 136.703 170.527 136.57 170.54C136.45 170.54 136.35 170.553 136.27 170.58V169.64C136.35 169.613 136.457 169.6 136.59 169.6C136.737 169.587 136.903 169.58 137.09 169.58ZM134.15 176.02C135.097 176.02 135.91 176.22 136.59 176.62C137.27 177.007 137.79 177.567 138.15 178.3C138.523 179.033 138.71 179.9 138.71 180.9V182.06H131.47C131.497 183.167 131.783 184.013 132.33 184.6C132.89 185.187 133.67 185.48 134.67 185.48C135.363 185.48 135.977 185.42 136.51 185.3C137.057 185.167 137.617 184.973 138.19 184.72V186.48C137.657 186.72 137.11 186.9 136.55 187.02C136.003 187.14 135.35 187.2 134.59 187.2C133.55 187.2 132.63 186.993 131.83 186.58C131.03 186.167 130.403 185.553 129.95 184.74C129.51 183.913 129.29 182.9 129.29 181.7C129.29 180.487 129.49 179.46 129.89 178.62C130.303 177.78 130.87 177.14 131.59 176.7C132.323 176.247 133.177 176.02 134.15 176.02ZM134.15 177.66C133.39 177.66 132.777 177.907 132.31 178.4C131.857 178.893 131.59 179.593 131.51 180.5H136.59C136.59 179.94 136.503 179.447 136.33 179.02C136.157 178.593 135.89 178.26 135.53 178.02C135.17 177.78 134.71 177.66 134.15 177.66ZM151.175 175.98V187H148.895V185.7C148.535 186.153 148.062 186.513 147.475 186.78C146.902 187.033 146.289 187.16 145.635 187.16C144.769 187.16 143.989 186.98 143.295 186.62C142.615 186.26 142.075 185.727 141.675 185.02C141.289 184.313 141.095 183.46 141.095 182.46V175.98H143.355V182.12C143.355 183.107 143.602 183.867 144.095 184.4C144.589 184.92 145.262 185.18 146.115 185.18C146.969 185.18 147.642 184.92 148.135 184.4C148.642 183.867 148.895 183.107 148.895 182.12V175.98H151.175ZM171.119 175.2H169.939V187H167.639V185.34C167.266 185.873 166.746 186.313 166.079 186.66C165.426 187.007 164.672 187.18 163.819 187.18C162.859 187.18 161.979 186.94 161.179 186.46C160.392 185.967 159.766 185.287 159.299 184.42C158.846 183.54 158.619 182.547 158.619 181.44C158.619 180.333 158.846 179.353 159.299 178.5C159.766 177.647 160.392 176.987 161.179 176.52C161.979 176.04 162.866 175.8 163.839 175.8C164.559 175.8 165.266 175.96 165.959 176.28C166.666 176.587 167.226 177 167.639 177.52V175.2H165.999V173.88H167.639V172.2H169.939V173.88H171.119V175.2ZM164.299 185.2C164.886 185.2 165.432 185.053 165.939 184.76C166.446 184.467 166.852 184.04 167.159 183.48C167.479 182.907 167.639 182.24 167.639 181.48C167.639 180.72 167.479 180.06 167.159 179.5C166.852 178.94 166.446 178.513 165.939 178.22C165.432 177.927 164.886 177.78 164.299 177.78C163.712 177.78 163.166 177.927 162.659 178.22C162.152 178.5 161.739 178.92 161.419 179.48C161.112 180.027 160.959 180.68 160.959 181.44C160.959 182.2 161.112 182.867 161.419 183.44C161.739 184.013 162.152 184.453 162.659 184.76C163.179 185.053 163.726 185.2 164.299 185.2ZM174.314 174.64C174.54 174.387 174.774 174.12 175.014 173.84C175.254 173.547 175.494 173.247 175.734 172.94C175.987 172.633 176.214 172.333 176.414 172.04H178.634C178.847 172.333 179.074 172.633 179.314 172.94C179.554 173.247 179.794 173.547 180.034 173.84C180.287 174.12 180.527 174.387 180.754 174.64V174.88H179.574C179.24 174.653 178.9 174.407 178.554 174.14C178.207 173.86 177.86 173.567 177.514 173.26C177.18 173.567 176.834 173.86 176.474 174.14C176.127 174.407 175.787 174.653 175.454 174.88H174.314V174.64ZM173.994 172.98C173.62 172.7 173.254 172.393 172.894 172.06C172.534 171.713 172.207 171.347 171.914 170.96V170.76H173.834C174.047 171.187 174.247 171.547 174.434 171.84C174.634 172.133 174.86 172.433 175.114 172.74V172.98H173.994ZM182.594 181.6C182.594 182.493 182.474 183.287 182.234 183.98C181.994 184.673 181.654 185.26 181.214 185.74C180.774 186.22 180.24 186.587 179.614 186.84C178.987 187.08 178.28 187.2 177.494 187.2C176.774 187.2 176.107 187.08 175.494 186.84C174.88 186.587 174.347 186.22 173.894 185.74C173.454 185.26 173.107 184.673 172.854 183.98C172.6 183.287 172.474 182.487 172.474 181.58C172.474 180.393 172.674 179.387 173.074 178.56C173.487 177.733 174.074 177.107 174.834 176.68C175.607 176.24 176.514 176.02 177.554 176.02C178.54 176.02 179.407 176.24 180.154 176.68C180.914 177.107 181.507 177.733 181.934 178.56C182.374 179.387 182.594 180.4 182.594 181.6ZM174.654 181.6C174.654 182.4 174.754 183.093 174.954 183.68C175.154 184.253 175.467 184.693 175.894 185C176.32 185.307 176.867 185.46 177.534 185.46C178.2 185.46 178.747 185.307 179.174 185C179.6 184.693 179.914 184.253 180.114 183.68C180.314 183.093 180.414 182.4 180.414 181.6C180.414 180.773 180.307 180.08 180.094 179.52C179.894 178.96 179.58 178.533 179.154 178.24C178.74 177.933 178.194 177.78 177.514 177.78C176.514 177.78 175.787 178.113 175.334 178.78C174.88 179.447 174.654 180.387 174.654 181.6ZM186.041 187.14C185.628 187.14 185.281 187 185.001 186.72C184.721 186.44 184.581 186.093 184.581 185.68C184.581 185.267 184.721 184.92 185.001 184.64C185.281 184.36 185.628 184.22 186.041 184.22C186.441 184.22 186.781 184.36 187.061 184.64C187.341 184.92 187.481 185.267 187.481 185.68C187.481 186.093 187.341 186.44 187.061 186.72C186.781 187 186.441 187.14 186.041 187.14Z" fill="white"/>
<g clip-path="url(#clip0_2104_1904)">
<path d="M817.743 245.122L821.084 276.169C821.753 282.514 822.455 288.891 821.996 295.255C821.462 302.601 821.388 322.836 821.499 325.687C821.52 327.583 821.424 329.479 821.211 331.363C819.701 350.202 826.391 400.081 828.507 401.203L808.671 408.388C806.138 405.216 807.815 400.281 807.334 396.254C806.893 392.627 793.811 319.96 793.407 318.294C792.739 316.084 788.194 305.537 783.229 282.292C778.938 288.676 779.112 296.984 778.263 304.636C777.073 315.322 770.049 390.924 771.079 394.771C772.108 398.618 772.616 402.839 771.045 406.504C765.556 404.49 759.659 403.84 753.862 404.608C747.493 398.097 752.356 304.591 750.855 297.043C749.853 292.055 748.128 287.213 747.513 282.157C746.677 275.072 748.093 267.933 749.518 260.934C750.473 256.213 751.424 251.491 752.502 246.796C753.663 241.754 755.049 236.607 758.156 232.479C763.13 225.874 771.956 222.942 780.208 223.584C788.459 224.225 796.167 227.974 802.984 232.653C808.357 236.241 813.308 240.424 817.743 245.122Z" fill="#090814"/>
<path d="M795.566 126.239C795.191 126.841 794.931 127.507 794.798 128.203C794.632 129.572 795.466 130.827 796.134 132.022C796.99 133.558 797.648 135.196 798.092 136.897C798.41 137.95 798.508 139.057 798.38 140.15C798.217 140.97 797.923 141.759 797.511 142.487C796.221 144.972 794.309 147.269 791.708 148.304C789.695 149.045 787.499 149.134 785.432 148.558C783.38 147.977 781.439 147.056 779.691 145.833C778.219 144.9 776.894 143.753 775.762 142.428C774.681 140.979 773.77 139.41 773.049 137.753C771.658 134.848 770.248 131.742 770.503 128.558C770.516 128.269 770.57 127.984 770.663 127.71C770.88 127.215 771.183 126.763 771.558 126.374C774.409 122.998 775.871 118.666 775.648 114.254L785.386 116.464C787.531 116.952 789.677 117.439 791.795 118.047C793.536 118.544 796.206 119.242 797.335 120.791C798.464 122.34 796.335 124.824 795.566 126.239Z" fill="#ED9DA0"/>
<path d="M787.506 142.573C788.253 140.937 789.872 139.902 791.349 138.874C792.825 137.846 794.323 136.53 794.61 134.747C794.628 134.344 794.728 133.95 794.905 133.587C795.472 132.732 796.823 133.16 797.631 133.788C799.596 135.317 800.932 137.487 802.236 139.605C803.922 142.179 805.365 144.904 806.547 147.745C808.425 152.694 808.652 158.1 808.859 163.378C809.047 168.183 809.227 173.07 808.058 177.73C807.322 180.681 806.053 183.547 805.979 186.585C805.759 197.624 801.923 208.175 801.655 219.214C801.635 222.406 801.796 225.596 802.136 228.77L802.764 235.936C793.047 235.379 783.356 234.526 773.693 233.378C773.288 230.091 772.59 226.848 771.608 223.686C768.078 210.635 765.815 197.275 764.851 183.791C764.336 176.632 763.808 169.5 763.013 162.367C762.298 155.883 760.894 149.362 761.737 142.887C762.177 139.946 763.103 137.098 764.477 134.459C764.911 133.408 765.657 132.515 766.615 131.901C767.094 131.67 767.602 131.506 768.126 131.414C769.641 131.107 771.179 130.926 772.724 130.873C773.101 130.841 773.481 130.877 773.846 130.979C774.497 131.304 775.032 131.822 775.376 132.462C778.354 136.935 782.568 140.448 787.506 142.573V142.573Z" fill="#F2F2F2"/>
<path d="M779.3 141.158C780.543 142.934 783.176 143.355 784.325 145.165C784.713 145.921 785.006 146.721 785.201 147.549C785.902 149.785 787.32 151.729 788.185 153.913C789.429 157.052 789.462 160.524 789.475 163.897C789.597 166.583 789.391 169.274 788.86 171.91C788.459 173.56 787.804 175.129 787.323 176.759C786.506 179.53 786.202 182.427 786.428 185.307C786.428 185.929 786.594 186.54 786.908 187.076C787.362 187.612 787.954 188.013 788.62 188.236C790.578 189.098 792.629 189.976 794.768 189.778C795.207 189.765 795.632 189.623 795.991 189.371C796.239 189.145 796.443 188.876 796.593 188.576L797.929 186.319C799.139 184.256 800.402 181.945 799.935 179.588C799.595 178.371 799.084 177.208 798.418 176.135C797.563 174.393 796.835 172.592 796.239 170.746C794.107 164.621 791.948 158.411 791.467 151.946C791.185 149.487 791.458 146.996 792.269 144.657C792.897 143.216 793.686 141.852 794.622 140.589C794.41 140.305 794.117 140.092 793.782 139.979C793.446 139.866 793.084 139.857 792.744 139.955C792.072 140.162 791.42 140.433 790.799 140.763C788.834 141.591 786.654 141.29 784.67 140.723C783.895 140.496 782.666 139.721 781.863 139.774C781.585 139.809 779.346 141.238 779.3 141.158Z" fill="#6C63FF"/>
<path d="M794.945 141.081C794.544 140.76 793.923 140.466 793.568 140.841C793.449 141.003 793.363 141.186 793.314 141.381C792.967 142.317 791.944 142.777 791.015 143.138C790.432 143.284 789.822 143.291 789.235 143.158C788.649 143.025 788.102 142.755 787.639 142.371C787.275 141.821 787.224 141.893 787.639 141.381C788.392 140.824 789.209 140.357 790.073 139.992C793.147 137.824 795.241 134.531 795.901 130.83C796.763 131.514 797.334 132.499 797.498 133.587C797.719 134.649 797.747 135.741 797.966 136.806C798.293 138.329 799.022 139.751 799.189 141.294C799.232 142.117 799.232 142.942 799.189 143.765C799.219 144.568 799.313 145.367 799.47 146.155C797.908 144.504 796.803 142.56 794.945 141.081Z" fill="#F2F2F2"/>
<path d="M781.418 136.549C780.75 135.915 780.081 135.314 779.413 134.667C776.479 131.807 774.263 128.294 772.947 124.415C772.091 125.083 771.149 125.964 771.129 127.087C771.205 127.881 771.512 128.635 772.011 129.257C774.538 133.234 776.207 137.695 776.91 142.353C777.271 141.789 777.771 141.328 778.362 141.013C778.953 140.699 779.615 140.541 780.285 140.556C781.341 140.556 787.545 143.061 787.887 142.353C788.005 142.091 788.345 141.896 787.737 141.252C786.371 139.786 782.03 137.126 781.418 136.549Z" fill="#F2F2F2"/>
<path d="M796.344 131.234C802.631 137.487 810.327 142.143 818.786 144.81C819.627 144.993 820.407 145.389 821.052 145.959C821.534 146.56 821.858 147.272 821.995 148.03C823.625 154.401 824.173 160.992 824.715 167.543C824.856 168.627 824.834 169.725 824.647 170.802C824.253 172.552 823.01 173.967 821.787 175.283C817.951 179.39 813.573 183.684 812.925 189.267C812.876 190.343 812.748 191.414 812.544 192.472C812.212 193.715 811.466 194.81 811.013 196.019C808.781 201.969 813.827 209.175 810.753 214.718C812.417 217.912 813.559 221.352 814.135 224.907C814.237 226.254 814.544 227.578 815.047 228.833C815.959 230.743 817.847 231.959 819.331 233.508C823.856 238.142 824.41 245.234 824.677 251.705C824.843 255.35 824.791 259.539 822.004 261.929C820.393 263.325 818.19 263.779 816.089 264.126C813.288 264.593 810.241 264.927 807.761 263.546C805.984 262.558 804.777 260.828 803.616 259.156C801.424 255.971 799.222 252.791 797.15 249.526C793.862 244.377 790.761 238.494 791.71 232.456C791.443 238.634 790.14 244.858 787.105 250.24C784.07 255.622 779.185 260.117 773.26 261.894C767.335 263.671 760.402 262.415 755.985 258.083C754.542 256.6 753.304 254.931 752.302 253.121C749.787 248.817 747.952 244.151 746.862 239.287C746.574 238.025 746.365 236.616 746.996 235.488C747.297 234.953 747.757 234.532 748.073 234.005C749.13 232.208 747.806 211.453 746.87 206.932C745.935 202.41 744.538 197.916 744.645 193.302C744.758 188.42 741.246 184.024 738.563 179.946C737.066 177.649 735.322 175.511 734.018 173.101C731.301 168.027 730.673 162.095 732.267 156.566C733.203 153.726 734.431 150.992 735.93 148.405L738.135 144.272C738.546 143.284 739.183 142.407 739.996 141.711C740.809 141.014 741.774 140.519 742.813 140.265L758.067 134.255C760.018 133.589 761.87 132.664 763.574 131.504C765.439 130.101 766.829 128.165 768.606 126.669C768.865 126.397 769.176 126.179 769.52 126.029C769.864 125.879 770.235 125.799 770.611 125.794C772.041 125.921 772.549 127.724 772.696 129.133C773.027 132.285 775.369 134.957 776.164 138.021C780.469 154.95 789.578 170.564 792.077 187.847C794.884 181.109 797.691 174.357 801.287 168.013C801.854 167.102 802.331 166.138 802.71 165.134C803.142 163.687 803.302 162.172 803.184 160.667C803.004 156.32 801.848 152.072 800.705 147.872C799.224 142.166 797.888 136.897 796.344 131.234Z" fill="#3F3D56"/>
<path d="M831.117 206.402C831.419 206.88 822.827 241.292 819.925 237.946C818.889 236.744 817.76 235.627 816.804 234.36C815.379 232.366 814.253 230.175 813.462 227.856C811.422 222.345 810.256 216.55 810.007 210.679C809.841 209.01 810.034 207.325 810.575 205.737C811.017 204.819 811.513 203.927 812.059 203.066C813.85 199.84 814.214 196.02 814.184 192.334C814.154 188.648 813.756 184.948 814.184 181.282C814.533 178.221 815.439 175.249 816.858 172.513C817.694 170.742 818.938 169.193 820.486 167.992C821.642 167.127 823.052 166.67 824.496 166.69C826.679 166.818 830.283 204.758 831.117 206.402Z" fill="#3F3D56"/>
<path d="M754.8 248.621C755 248.768 755.228 248.969 755.174 249.209C755.12 249.449 754.925 249.51 754.752 249.61C753.849 250.25 753.174 251.163 752.828 252.214C751.717 254.715 750.748 257.277 749.926 259.887C748.43 257.649 746.671 255.597 744.687 253.777C743.163 252.375 741.458 251.044 740.644 249.149C740.644 249.096 744.145 246.512 744.466 246.231C745.448 245.356 746.685 242.932 747.699 242.398C748.849 241.796 749.945 244.154 750.82 245.103C752.026 246.406 753.359 247.585 754.8 248.622V248.621Z" fill="#ED9DA0"/>
<path d="M790.298 124.416C801.115 124.416 809.884 115.654 809.884 104.845C809.884 94.0361 801.115 85.2738 790.298 85.2738C779.481 85.2738 770.712 94.0361 770.712 104.845C770.712 115.654 779.481 124.416 790.298 124.416Z" fill="#ED9DA0"/>
<path d="M768.348 93.1193C770.326 90.0626 774.036 88.0248 777.633 88.5972C777.968 86.3035 778.927 84.1456 780.405 82.3585C781.882 80.5714 783.822 79.2235 786.013 78.4614C788.204 77.6993 790.562 77.5523 792.831 78.0363C795.1 78.5203 797.192 79.6167 798.881 81.2064C799.436 80.8158 800.083 80.575 800.758 80.5073C801.434 80.4397 802.116 80.5476 802.737 80.8204C803.976 81.3829 805.053 82.2467 805.87 83.3329C807.935 85.9053 809.262 88.989 809.712 92.2557C810.162 95.5223 809.716 98.8497 808.424 101.884C808.863 100.286 807.263 98.7838 805.643 98.4251C804.023 98.0664 802.327 98.406 800.686 98.1724C798.582 97.8734 796.691 96.654 794.584 96.3798C792.797 96.2636 791.005 96.4937 789.306 97.0574C787.607 97.6211 785.817 97.8614 784.03 97.7657C782.257 97.5553 779.973 104.27 780.004 109C780.009 109.896 779.824 111.047 778.948 111.237C777.87 111.471 777.243 109.983 776.212 109.58C775.738 109.445 775.23 109.499 774.795 109.73C774.361 109.962 774.033 110.354 773.881 110.823C773.752 111.299 773.738 111.799 773.841 112.281C773.944 112.763 774.161 113.214 774.473 113.596C775.105 114.353 775.854 115.002 776.693 115.52L776.271 115.872C775.869 116.296 775.332 116.568 774.752 116.64C774.172 116.712 773.585 116.58 773.092 116.267C772.122 115.61 771.336 114.716 770.81 113.67C768.826 110.605 767.408 107.21 766.623 103.646C765.849 100.046 766.465 96.2853 768.348 93.1193Z" fill="#090814"/>
<path d="M720.561 198.086C720.128 199.868 719.886 201.69 719.839 203.522C719.924 205.655 720.291 207.768 720.928 209.806C725.232 225.306 733.078 239.604 741.914 253.047C744.438 249.901 747.437 247.166 750.802 244.94C751.078 244.777 751.307 244.548 751.471 244.272C751.555 244.013 751.58 243.737 751.543 243.467C751.506 243.196 751.408 242.938 751.257 242.71C748.817 237.715 740.524 205.707 739 202.829C742.108 201.62 743.905 198.421 745.222 195.356C746.628 192.22 747.634 188.919 748.216 185.532C749.131 179.039 747.859 172.425 744.601 166.733C743.008 163.893 740.964 161.331 738.549 159.147C736.685 157.969 734.759 156.894 732.779 155.926C731.238 155.962 721.402 194.037 720.561 198.086Z" fill="#3F3D56"/>
<path d="M907.556 313.847H862.614C861.397 313.845 860.23 313.362 859.369 312.502C858.509 311.642 858.025 310.476 858.023 309.26V161.289C858.025 160.073 858.509 158.907 859.369 158.048C860.23 157.188 861.397 156.704 862.614 156.703H907.557C908.774 156.704 909.941 157.188 910.801 158.048C911.662 158.907 912.146 160.073 912.147 161.289V309.26C912.146 310.476 911.662 311.642 910.801 312.502C909.94 313.362 908.773 313.846 907.556 313.847Z" fill="#6C63FF"/>
<path d="M989.512 313.847H944.572C943.355 313.845 942.188 313.362 941.327 312.502C940.467 311.642 939.983 310.476 939.981 309.26V102.572C939.983 101.356 940.467 100.19 941.327 99.3297C942.188 98.4698 943.355 97.9862 944.572 97.9849H989.512C990.729 97.9862 991.896 98.4698 992.757 99.3297C993.617 100.19 994.101 101.356 994.103 102.572V309.258C994.101 310.475 993.618 311.641 992.757 312.501C991.896 313.361 990.73 313.845 989.512 313.847Z" fill="#6C63FF"/>
<path d="M1071.47 313.847H1026.53C1025.31 313.845 1024.15 313.362 1023.29 312.502C1022.43 311.642 1021.94 310.476 1021.94 309.26V161.289C1021.94 160.073 1022.43 158.907 1023.29 158.048C1024.15 157.188 1025.31 156.704 1026.53 156.703H1071.47C1072.69 156.704 1073.86 157.188 1074.72 158.048C1075.58 158.907 1076.06 160.073 1076.07 161.289V309.26C1076.06 310.476 1075.58 311.642 1074.72 312.502C1073.86 313.362 1072.69 313.845 1071.47 313.847Z" fill="#6C63FF"/>
<path d="M1153.43 313.847H1108.49C1107.3 313.872 1106.15 313.426 1105.29 312.605C1104.43 311.784 1103.93 310.656 1103.9 309.468V79.1856C1103.93 77.9974 1104.43 76.8693 1105.29 76.0485C1106.15 75.2278 1107.3 74.7812 1108.49 74.8068H1153.43C1154.62 74.7812 1155.77 75.2278 1156.63 76.0485C1157.49 76.8693 1157.99 77.9974 1158.02 79.1856V309.468C1157.99 310.656 1157.49 311.784 1156.63 312.605C1155.77 313.426 1154.62 313.872 1153.43 313.847Z" fill="#6C63FF"/>
<path d="M885.085 138.16C890.209 138.16 894.363 134.009 894.363 128.889C894.363 123.769 890.209 119.618 885.085 119.618C879.961 119.618 875.807 123.769 875.807 128.889C875.807 134.009 879.961 138.16 885.085 138.16Z" fill="#3F3D56"/>
<path d="M967.044 77.8966C972.168 77.8966 976.322 73.7458 976.322 68.6254C976.322 63.5051 972.168 59.3542 967.044 59.3542C961.92 59.3542 957.766 63.5051 957.766 68.6254C957.766 73.7458 961.92 77.8966 967.044 77.8966Z" fill="#3F3D56"/>
<path d="M1049 138.16C1054.13 138.16 1058.28 134.009 1058.28 128.889C1058.28 123.769 1054.13 119.618 1049 119.618C1043.88 119.618 1039.72 123.769 1039.72 128.889C1039.72 134.009 1043.88 138.16 1049 138.16Z" fill="#3F3D56"/>
<path d="M1130.96 48.5374C1136.09 48.5374 1140.24 44.3865 1140.24 39.2662C1140.24 34.1459 1136.09 29.995 1130.96 29.995C1125.84 29.995 1121.68 34.1459 1121.68 39.2662C1121.68 44.3865 1125.84 48.5374 1130.96 48.5374Z" fill="#3F3D56"/>
<path d="M884.587 129.469L883.724 128.309L967.039 66.3267L1048.73 127.212L1131.55 37.3725L1131.7 37.312L1132.4 37.3725L1132.95 38.7095L1132.4 38.5877L1048.92 129.153L967.044 68.1301L884.587 129.469Z" fill="#3F3D56"/>
</g>
<defs>
<linearGradient id="paint0_linear_2104_1904" x1="0" y1="150" x2="1216" y2="150" gradientUnits="userSpaceOnUse">
<stop stop-color="#6A00FF"/>
<stop offset="1" stop-color="#00BFFF"/>
</linearGradient>
<clipPath id="clip0_2104_1904">
<rect width="468" height="268" fill="white" transform="translate(714 30)"/>
</clipPath>
</defs>
</svg>
