<svg width="221" height="40" viewBox="0 0 221 40" fill="none" xmlns="http://www.w3.org/2000/svg">
<path d="M10.5595 8.47998H24.0517L14.1322 23.1826H0.639999L10.5595 8.47998Z" fill="#212121"/>
<path d="M11.1503 25.1853L7.30829 30.88H21.4405L31.36 16.1774H20.9295L14.8521 25.1853H11.1503Z" fill="#404040"/>
<path d="M44.66 19.3H51.38V21.9H44.66V19.3ZM44.9 27H41.66V13H52.24V15.6H44.9V27ZM54.0181 27V16.24H56.9981V19.28L56.5781 18.4C56.8981 17.64 57.4115 17.0667 58.1181 16.68C58.8248 16.28 59.6848 16.08 60.6981 16.08V18.96C60.5648 18.9467 60.4448 18.94 60.3381 18.94C60.2315 18.9267 60.1181 18.92 59.9981 18.92C59.1448 18.92 58.4515 19.1667 57.9181 19.66C57.3981 20.14 57.1381 20.8933 57.1381 21.92V27H54.0181ZM67.8152 27.16C66.5885 27.16 65.5085 26.92 64.5752 26.44C63.6552 25.96 62.9418 25.3067 62.4352 24.48C61.9285 23.64 61.6752 22.6867 61.6752 21.62C61.6752 20.54 61.9218 19.5867 62.4152 18.76C62.9218 17.92 63.6085 17.2667 64.4752 16.8C65.3418 16.32 66.3218 16.08 67.4152 16.08C68.4685 16.08 69.4152 16.3067 70.2552 16.76C71.1085 17.2 71.7818 17.84 72.2752 18.68C72.7685 19.5067 73.0152 20.5 73.0152 21.66C73.0152 21.78 73.0085 21.92 72.9952 22.08C72.9818 22.2267 72.9685 22.3667 72.9552 22.5H64.2152V20.68H71.3152L70.1152 21.22C70.1152 20.66 70.0018 20.1733 69.7752 19.76C69.5485 19.3467 69.2352 19.0267 68.8352 18.8C68.4352 18.56 67.9685 18.44 67.4352 18.44C66.9018 18.44 66.4285 18.56 66.0152 18.8C65.6152 19.0267 65.3018 19.3533 65.0752 19.78C64.8485 20.1933 64.7352 20.6867 64.7352 21.26V21.74C64.7352 22.3267 64.8618 22.8467 65.1152 23.3C65.3818 23.74 65.7485 24.08 66.2152 24.32C66.6952 24.5467 67.2552 24.66 67.8952 24.66C68.4685 24.66 68.9685 24.5733 69.3952 24.4C69.8352 24.2267 70.2352 23.9667 70.5952 23.62L72.2552 25.42C71.7618 25.98 71.1418 26.4133 70.3952 26.72C69.6485 27.0133 68.7885 27.16 67.8152 27.16ZM80.4323 27.16C79.2057 27.16 78.1257 26.92 77.1923 26.44C76.2723 25.96 75.559 25.3067 75.0523 24.48C74.5457 23.64 74.2923 22.6867 74.2923 21.62C74.2923 20.54 74.539 19.5867 75.0323 18.76C75.539 17.92 76.2257 17.2667 77.0923 16.8C77.959 16.32 78.939 16.08 80.0323 16.08C81.0857 16.08 82.0323 16.3067 82.8723 16.76C83.7257 17.2 84.399 17.84 84.8923 18.68C85.3857 19.5067 85.6323 20.5 85.6323 21.66C85.6323 21.78 85.6257 21.92 85.6123 22.08C85.599 22.2267 85.5857 22.3667 85.5723 22.5H76.8323V20.68H83.9323L82.7323 21.22C82.7323 20.66 82.619 20.1733 82.3923 19.76C82.1657 19.3467 81.8523 19.0267 81.4523 18.8C81.0523 18.56 80.5857 18.44 80.0523 18.44C79.519 18.44 79.0457 18.56 78.6323 18.8C78.2323 19.0267 77.919 19.3533 77.6923 19.78C77.4657 20.1933 77.3523 20.6867 77.3523 21.26V21.74C77.3523 22.3267 77.479 22.8467 77.7323 23.3C77.999 23.74 78.3657 24.08 78.8323 24.32C79.3123 24.5467 79.8723 24.66 80.5123 24.66C81.0857 24.66 81.5857 24.5733 82.0123 24.4C82.4523 24.2267 82.8523 23.9667 83.2123 23.62L84.8723 25.42C84.379 25.98 83.759 26.4133 83.0123 26.72C82.2657 27.0133 81.4057 27.16 80.4323 27.16ZM92.3295 27.16C91.3162 27.16 90.4029 26.9333 89.5895 26.48C88.7762 26.0133 88.1295 25.3667 87.6495 24.54C87.1829 23.7133 86.9495 22.74 86.9495 21.62C86.9495 20.4867 87.1829 19.5067 87.6495 18.68C88.1295 17.8533 88.7762 17.2133 89.5895 16.76C90.4029 16.3067 91.3162 16.08 92.3295 16.08C93.2362 16.08 94.0295 16.28 94.7095 16.68C95.3895 17.08 95.9162 17.6867 96.2895 18.5C96.6629 19.3133 96.8495 20.3533 96.8495 21.62C96.8495 22.8733 96.6695 23.9133 96.3095 24.74C95.9495 25.5533 95.4295 26.16 94.7495 26.56C94.0829 26.96 93.2762 27.16 92.3295 27.16ZM92.8695 24.6C93.3762 24.6 93.8362 24.48 94.2495 24.24C94.6629 24 94.9895 23.66 95.2295 23.22C95.4829 22.7667 95.6095 22.2333 95.6095 21.62C95.6095 20.9933 95.4829 20.46 95.2295 20.02C94.9895 19.58 94.6629 19.24 94.2495 19C93.8362 18.76 93.3762 18.64 92.8695 18.64C92.3495 18.64 91.8829 18.76 91.4695 19C91.0562 19.24 90.7229 19.58 90.4695 20.02C90.2295 20.46 90.1095 20.9933 90.1095 21.62C90.1095 22.2333 90.2295 22.7667 90.4695 23.22C90.7229 23.66 91.0562 24 91.4695 24.24C91.8829 24.48 92.3495 24.6 92.8695 24.6ZM95.6895 27V24.8L95.7495 21.6L95.5495 18.42V12.16H98.6695V27H95.6895ZM106.677 27.16C105.531 27.16 104.511 26.92 103.617 26.44C102.737 25.96 102.037 25.3067 101.517 24.48C101.011 23.64 100.757 22.6867 100.757 21.62C100.757 20.54 101.011 19.5867 101.517 18.76C102.037 17.92 102.737 17.2667 103.617 16.8C104.511 16.32 105.531 16.08 106.677 16.08C107.811 16.08 108.824 16.32 109.717 16.8C110.611 17.2667 111.311 17.9133 111.817 18.74C112.324 19.5667 112.577 20.5267 112.577 21.62C112.577 22.6867 112.324 23.64 111.817 24.48C111.311 25.3067 110.611 25.96 109.717 26.44C108.824 26.92 107.811 27.16 106.677 27.16ZM106.677 24.6C107.197 24.6 107.664 24.48 108.077 24.24C108.491 24 108.817 23.66 109.057 23.22C109.297 22.7667 109.417 22.2333 109.417 21.62C109.417 20.9933 109.297 20.46 109.057 20.02C108.817 19.58 108.491 19.24 108.077 19C107.664 18.76 107.197 18.64 106.677 18.64C106.157 18.64 105.691 18.76 105.277 19C104.864 19.24 104.531 19.58 104.277 20.02C104.037 20.46 103.917 20.9933 103.917 21.62C103.917 22.2333 104.037 22.7667 104.277 23.22C104.531 23.66 104.864 24 105.277 24.24C105.691 24.48 106.157 24.6 106.677 24.6ZM128.443 16.08C129.296 16.08 130.049 16.2533 130.703 16.6C131.369 16.9333 131.889 17.4533 132.263 18.16C132.649 18.8533 132.843 19.7467 132.843 20.84V27H129.723V21.32C129.723 20.4533 129.543 19.8133 129.183 19.4C128.823 18.9867 128.316 18.78 127.663 18.78C127.209 18.78 126.803 18.8867 126.443 19.1C126.083 19.3 125.803 19.6067 125.603 20.02C125.403 20.4333 125.303 20.96 125.303 21.6V27H122.183V21.32C122.183 20.4533 122.003 19.8133 121.643 19.4C121.296 18.9867 120.796 18.78 120.143 18.78C119.689 18.78 119.283 18.8867 118.923 19.1C118.563 19.3 118.283 19.6067 118.083 20.02C117.883 20.4333 117.783 20.96 117.783 21.6V27H114.663V16.24H117.643V19.18L117.083 18.32C117.456 17.5867 117.983 17.0333 118.663 16.66C119.356 16.2733 120.143 16.08 121.023 16.08C122.009 16.08 122.869 16.3333 123.603 16.84C124.349 17.3333 124.843 18.0933 125.083 19.12L123.983 18.82C124.343 17.98 124.916 17.3133 125.703 16.82C126.503 16.3267 127.416 16.08 128.443 16.08ZM144.423 27V15.64H139.943V13H152.143V15.64H147.663V27H144.423ZM153.432 27V16.24H156.412V19.28L155.992 18.4C156.312 17.64 156.826 17.0667 157.532 16.68C158.239 16.28 159.099 16.08 160.112 16.08V18.96C159.979 18.9467 159.859 18.94 159.752 18.94C159.646 18.9267 159.532 18.92 159.412 18.92C158.559 18.92 157.866 19.1667 157.332 19.66C156.812 20.14 156.552 20.8933 156.552 21.92V27H153.432ZM167.864 27V24.9L167.664 24.44V20.68C167.664 20.0133 167.458 19.4933 167.044 19.12C166.644 18.7467 166.024 18.56 165.184 18.56C164.611 18.56 164.044 18.6533 163.484 18.84C162.938 19.0133 162.471 19.2533 162.084 19.56L160.964 17.38C161.551 16.9667 162.258 16.6467 163.084 16.42C163.911 16.1933 164.751 16.08 165.604 16.08C167.244 16.08 168.518 16.4667 169.424 17.24C170.331 18.0133 170.784 19.22 170.784 20.86V27H167.864ZM164.584 27.16C163.744 27.16 163.024 27.02 162.424 26.74C161.824 26.4467 161.364 26.0533 161.044 25.56C160.724 25.0667 160.564 24.5133 160.564 23.9C160.564 23.26 160.718 22.7 161.024 22.22C161.344 21.74 161.844 21.3667 162.524 21.1C163.204 20.82 164.091 20.68 165.184 20.68H168.044V22.5H165.524C164.791 22.5 164.284 22.62 164.004 22.86C163.738 23.1 163.604 23.4 163.604 23.76C163.604 24.16 163.758 24.48 164.064 24.72C164.384 24.9467 164.818 25.06 165.364 25.06C165.884 25.06 166.351 24.94 166.764 24.7C167.178 24.4467 167.478 24.08 167.664 23.6L168.144 25.04C167.918 25.7333 167.504 26.26 166.904 26.62C166.304 26.98 165.531 27.16 164.584 27.16ZM178.306 27.16C177.293 27.16 176.379 26.9333 175.566 26.48C174.753 26.0133 174.106 25.3667 173.626 24.54C173.159 23.7133 172.926 22.74 172.926 21.62C172.926 20.4867 173.159 19.5067 173.626 18.68C174.106 17.8533 174.753 17.2133 175.566 16.76C176.379 16.3067 177.293 16.08 178.306 16.08C179.213 16.08 180.006 16.28 180.686 16.68C181.366 17.08 181.893 17.6867 182.266 18.5C182.639 19.3133 182.826 20.3533 182.826 21.62C182.826 22.8733 182.646 23.9133 182.286 24.74C181.926 25.5533 181.406 26.16 180.726 26.56C180.059 26.96 179.253 27.16 178.306 27.16ZM178.846 24.6C179.353 24.6 179.813 24.48 180.226 24.24C180.639 24 180.966 23.66 181.206 23.22C181.459 22.7667 181.586 22.2333 181.586 21.62C181.586 20.9933 181.459 20.46 181.206 20.02C180.966 19.58 180.639 19.24 180.226 19C179.813 18.76 179.353 18.64 178.846 18.64C178.326 18.64 177.859 18.76 177.446 19C177.033 19.24 176.699 19.58 176.446 20.02C176.206 20.46 176.086 20.9933 176.086 21.62C176.086 22.2333 176.206 22.7667 176.446 23.22C176.699 23.66 177.033 24 177.446 24.24C177.859 24.48 178.326 24.6 178.846 24.6ZM181.666 27V24.8L181.726 21.6L181.526 18.42V12.16H184.646V27H181.666ZM187.534 27V16.24H190.654V27H187.534ZM189.094 14.74C188.52 14.74 188.054 14.5733 187.694 14.24C187.334 13.9067 187.154 13.4933 187.154 13C187.154 12.5067 187.334 12.0933 187.694 11.76C188.054 11.4267 188.52 11.26 189.094 11.26C189.667 11.26 190.134 11.42 190.494 11.74C190.854 12.0467 191.034 12.4467 191.034 12.94C191.034 13.46 190.854 13.8933 190.494 14.24C190.147 14.5733 189.68 14.74 189.094 14.74ZM200.089 16.08C200.943 16.08 201.703 16.2533 202.369 16.6C203.049 16.9333 203.583 17.4533 203.969 18.16C204.356 18.8533 204.549 19.7467 204.549 20.84V27H201.429V21.32C201.429 20.4533 201.236 19.8133 200.849 19.4C200.476 18.9867 199.943 18.78 199.249 18.78C198.756 18.78 198.309 18.8867 197.909 19.1C197.523 19.3 197.216 19.6133 196.989 20.04C196.776 20.4667 196.669 21.0133 196.669 21.68V27H193.549V16.24H196.529V19.22L195.969 18.32C196.356 17.6 196.909 17.0467 197.629 16.66C198.349 16.2733 199.169 16.08 200.089 16.08ZM212.516 31.04C211.502 31.04 210.522 30.9133 209.576 30.66C208.642 30.42 207.862 30.0533 207.236 29.56L208.476 27.32C208.929 27.6933 209.502 27.9867 210.196 28.2C210.902 28.4267 211.596 28.54 212.276 28.54C213.382 28.54 214.182 28.2933 214.676 27.8C215.182 27.3067 215.436 26.5733 215.436 25.6V23.98L215.636 21.28L215.596 18.56V16.24H218.556V25.2C218.556 27.2 218.036 28.6733 216.996 29.62C215.956 30.5667 214.462 31.04 212.516 31.04ZM212.036 26.48C211.036 26.48 210.129 26.2667 209.316 25.84C208.516 25.4 207.869 24.7933 207.376 24.02C206.896 23.2333 206.656 22.32 206.656 21.28C206.656 20.2267 206.896 19.3133 207.376 18.54C207.869 17.7533 208.516 17.1467 209.316 16.72C210.129 16.2933 211.036 16.08 212.036 16.08C212.942 16.08 213.742 16.2667 214.436 16.64C215.129 17 215.669 17.5667 216.056 18.34C216.442 19.1 216.636 20.08 216.636 21.28C216.636 22.4667 216.442 23.4467 216.056 24.22C215.669 24.98 215.129 25.5467 214.436 25.92C213.742 26.2933 212.942 26.48 212.036 26.48ZM212.656 23.92C213.202 23.92 213.689 23.8133 214.116 23.6C214.542 23.3733 214.876 23.06 215.116 22.66C215.356 22.26 215.476 21.8 215.476 21.28C215.476 20.7467 215.356 20.2867 215.116 19.9C214.876 19.5 214.542 19.1933 214.116 18.98C213.689 18.7533 213.202 18.64 212.656 18.64C212.109 18.64 211.622 18.7533 211.196 18.98C210.769 19.1933 210.429 19.5 210.176 19.9C209.936 20.2867 209.816 20.7467 209.816 21.28C209.816 21.8 209.936 22.26 210.176 22.66C210.429 23.06 210.769 23.3733 211.196 23.6C211.622 23.8133 212.109 23.92 212.656 23.92Z" fill="#212121"/>
</svg>
